<svg width="82.000000" height="82.000000" viewBox="0 0 82 82" fill="none" xmlns="http://www.w3.org/2000/svg" xmlns:xlink="http://www.w3.org/1999/xlink">
	<desc>
			Created with Pixso.
	</desc>
	<defs>
		<clipPath id="clip2241_2499">
			<rect id="icon" width="82.000000" height="82.000000" fill="white" fill-opacity="0"/>
		</clipPath>
	</defs>
	<g clip-path="url(#clip2241_2499)">
		<rect id="Medico/Line/Medical Kit" width="82.000000" height="82.000000" fill="#FFFFFF" fill-opacity="0"/>
		<path id="Vector" d="M73 67.03C73 68.88 73 69.81 72.43 70.39C72.42 70.4 72.4 70.42 72.39 70.43C71.8 71 70.88 71 69.03 71L12.96 71C11.11 71 10.19 71 9.6 70.43C9.59 70.42 9.57 70.4 9.56 70.39C9 69.81 9 68.88 9 67.03L9 28.96C9 27.11 9 26.18 9.56 25.6C9.57 25.59 9.59 25.57 9.6 25.56C10.19 25 11.11 25 12.96 25L27 25L55 25L69.03 25C70.88 25 71.8 25 72.39 25.56C72.4 25.57 72.42 25.59 72.43 25.6C73 26.18 73 27.11 73 28.96L73 67.03ZM27 25L27 13.97C27 12.58 27 11.89 27.42 11.45C27.43 11.44 27.44 11.43 27.45 11.42C27.89 11 28.58 11 29.96 11L52.03 11C53.41 11 54.1 11 54.54 11.42C54.55 11.43 54.56 11.44 54.57 11.45C55 11.89 55 12.58 55 13.97L55 25" stroke="#3DA6D3" stroke-opacity="1.000000" stroke-width="7.000000"/>
		<path id="Vector" d="M36.72 36.85C37.03 36.11 37.61 35.53 38.35 35.22C38.9 35 39.6 35 41 35C42.39 35 43.09 35 43.64 35.22C44.38 35.53 44.96 36.11 45.27 36.85C45.5 37.4 45.5 38.1 45.5 39.5L45.5 42.35C45.5 42.42 45.5 42.45 45.51 42.47C45.54 42.5 45.57 42.5 45.64 42.5L48.5 42.5C49.89 42.5 50.59 42.5 51.14 42.72C51.88 43.03 52.46 43.61 52.77 44.35C53 44.9 53 45.6 53 47C53 48.39 53 49.09 52.77 49.64C52.46 50.38 51.88 50.96 51.14 51.27C50.59 51.5 49.89 51.5 48.5 51.5L45.64 51.5C45.57 51.5 45.54 51.5 45.51 51.52C45.5 51.54 45.5 51.57 45.5 51.64L45.5 54.5C45.5 55.89 45.5 56.59 45.27 57.14C44.96 57.88 44.38 58.46 43.64 58.77C43.09 59 42.39 59 41 59C39.6 59 38.9 59 38.35 58.77C37.61 58.46 37.03 57.88 36.72 57.14C36.5 56.59 36.5 55.89 36.5 54.5L36.5 51.64C36.5 51.57 36.5 51.54 36.48 51.52C36.45 51.5 36.42 51.5 36.35 51.5L33.5 51.5C32.1 51.5 31.4 51.5 30.85 51.27C30.11 50.96 29.53 50.38 29.22 49.64C29 49.09 29 48.39 29 47C29 45.6 29 44.9 29.22 44.35C29.53 43.61 30.11 43.03 30.85 42.72C31.4 42.5 32.1 42.5 33.5 42.5L36.35 42.5C36.42 42.5 36.45 42.5 36.48 42.47C36.5 42.45 36.5 42.42 36.5 42.35L36.5 39.5C36.5 38.1 36.5 37.4 36.72 36.85Z" stroke="#3DA6D3" stroke-opacity="1.000000" stroke-width="7.000000"/>
	</g>
</svg>
