<svg width="82.000000" height="82.000000" viewBox="0 0 82 82" fill="none" xmlns="http://www.w3.org/2000/svg" xmlns:xlink="http://www.w3.org/1999/xlink">
	<desc>
			Created with Pixso.
	</desc>
	<defs>
		<clipPath id="clip45_4357">
			<rect id="icon" width="82.000000" height="82.000000" fill="white" fill-opacity="0"/>
		</clipPath>
	</defs>
	<g clip-path="url(#clip45_4357)">
		<rect id="Medico/Line/Pill" width="82.000000" height="82.000000" fill="#FFFFFF" fill-opacity="0"/>
		<path id="Vector" d="M63.01 7C63.94 7 64.4 7 64.69 7.28C64.7 7.28 64.71 7.29 64.71 7.3C65 7.59 65 8.05 65 8.98L65 73.01C65 73.94 65 74.4 64.71 74.69C64.71 74.7 64.7 74.71 64.69 74.71C64.4 75 63.94 75 63.01 75L18.98 75C18.05 75 17.59 75 17.3 74.71C17.29 74.71 17.28 74.7 17.28 74.69C17 74.4 17 73.94 17 73.01L17 8.98C17 8.05 17 7.59 17.28 7.3C17.28 7.29 17.29 7.28 17.3 7.28C17.59 7 18.05 7 18.98 7L63.01 7Z" stroke="#3DA6D3" stroke-opacity="1.000000" stroke-width="7.000000"/>
		<circle id="Vector" cx="29.000000" cy="21.000000" r="4.000000" stroke="#3DA6D3" stroke-opacity="1.000000" stroke-width="7.000000"/>
		<circle id="Vector" cx="53.000000" cy="21.000000" r="4.000000" stroke="#3DA6D3" stroke-opacity="1.000000" stroke-width="7.000000"/>
		<circle id="Vector" cx="29.000000" cy="41.000000" r="4.000000" stroke="#3DA6D3" stroke-opacity="1.000000" stroke-width="7.000000"/>
		<circle id="Vector" cx="53.000000" cy="41.000000" r="4.000000" stroke="#3DA6D3" stroke-opacity="1.000000" stroke-width="7.000000"/>
		<circle id="Vector" cx="29.000000" cy="61.000000" r="4.000000" stroke="#3DA6D3" stroke-opacity="1.000000" stroke-width="7.000000"/>
		<circle id="Vector" cx="53.000000" cy="61.000000" r="4.000000" stroke="#3DA6D3" stroke-opacity="1.000000" stroke-width="7.000000"/>
		<path id="Vector" d="M41 17L41 65" stroke="#3DA6D3" stroke-opacity="1.000000" stroke-width="7.000000" stroke-linecap="round"/>
	</g>
</svg>
