<svg width="82.000000" height="82.000000" viewBox="0 0 82 82" fill="none" xmlns="http://www.w3.org/2000/svg" xmlns:xlink="http://www.w3.org/1999/xlink">
	<desc>
			Created with Pixso.
	</desc>
	<defs>
		<clipPath id="clip45_4445">
			<rect id="icon" width="82.000000" height="82.000000" fill="white" fill-opacity="0"/>
		</clipPath>
	</defs>
	<g clip-path="url(#clip45_4445)">
		<rect id="Medico/Line/Body" width="82.000000" height="82.000000" fill="#FFFFFF" fill-opacity="0"/>
		<path id="Vector" d="M17 25L65 25C71 25 71 33 65 33L57 33C54.78 33 53 34.79 53 37L53 75C53 81 45 81 45 75C45 69 45 57 41 57C37 57 37 69 37 75C37 81 29 81 29 75L29 36.98C29 34.77 27.21 33 25 33L17 33C11 33 11 25 17 25Z" stroke="#3DA6D3" stroke-opacity="1.000000" stroke-width="7.000000"/>
		<path id="Vector" d="M41 19C36.58 19 33 15.41 33 11C33 6.58 36.58 3 41 3C45.41 3 49 6.58 49 11C49 15.41 45.41 19 41 19Z" stroke="#3DA6D3" stroke-opacity="1.000000" stroke-width="7.000000"/>
	</g>
</svg>
