<svg width="82.000000" height="82.000000" viewBox="0 0 82 82" fill="none" xmlns="http://www.w3.org/2000/svg" xmlns:xlink="http://www.w3.org/1999/xlink">
	<desc>
			Created with Pixso.
	</desc>
	<defs>
		<clipPath id="clip45_4533">
			<rect id="icon" width="82.000000" height="82.000000" fill="white" fill-opacity="0"/>
		</clipPath>
	</defs>
	<g clip-path="url(#clip45_4533)">
		<rect id="Medico/Line/Microscope" width="82.000000" height="82.000000" fill="#FFFFFF" fill-opacity="0"/>
		<path id="Vector" d="M59 67C60.1 67 61 67.89 61 69L61 74.5C61 74.77 60.77 75 60.5 75L21.5 75C21.22 75 21 74.77 21 74.5L21 69C21 67.89 21.89 67 23 67L59 67Z" stroke="#3DA6D3" stroke-opacity="1.000000" stroke-width="7.000000"/>
		<path id="Vector" d="M20.21 52.99C20.21 52.99 23.12 57.22 25.05 58.93C28.2 61.73 32.03 63.65 36.16 64.5C40.28 65.35 44.56 65.1 48.56 63.77C52.56 62.44 56.14 60.08 58.93 56.94C61.73 53.79 63.65 49.96 64.5 45.83C65.35 41.7 65.1 37.43 63.77 33.43C63.07 31.33 62.09 29.35 60.87 27.53L60.57 27.22M55 30.99L55.39 31.74C56.16 32.93 56.78 34.23 57.24 35.6C58.19 38.45 58.37 41.5 57.76 44.44C57.16 47.39 55.78 50.12 53.79 52.36C51.79 54.61 49.24 56.29 46.39 57.24C43.54 58.19 40.49 58.37 37.55 57.76C34.24 57.08 28.79 52.99 28.79 52.99M55 18.99C56.76 18.99 58.35 19.76 59.45 20.98C60.41 22.04 61 23.45 61 24.99C61 25.78 60.84 26.53 60.57 27.22C59.69 29.43 57.52 30.99 55 30.99C52.88 30.99 51.02 29.9 49.95 28.25C49.35 27.31 49 26.19 49 24.99C49 21.68 51.68 18.99 55 18.99ZM49.95 28.25L38.34 37.15C37.23 38 35.62 37.79 34.77 36.67L29.78 30.16C29.37 29.63 29.17 29.36 29.03 29.1C28.42 27.91 28.62 26.47 29.51 25.49C29.71 25.27 29.98 25.07 30.51 24.66L50.48 9.36C52.37 7.91 53.32 7.18 54.35 7.15C54.7 7.14 55.04 7.19 55.37 7.29C56.36 7.59 57.08 8.53 58.53 10.42L61 13.63C61.95 14.88 62.43 15.51 62.59 16.16C62.78 16.94 62.67 17.76 62.28 18.46C61.96 19.05 61.33 19.53 60.08 20.49L59.45 20.98M64.82 9.14C65.88 10.53 65.74 12.54 64.35 13.66C63.41 14.41 62.08 14.39 61.31 13.39L60.08 11.78L58.85 10.17C58.09 9.18 58.41 7.87 59.37 7.17C60.82 6.11 62.79 6.5 63.86 7.89L64.82 9.14ZM58.85 10.17L58.53 10.42M61.31 13.39L61 13.63M34.77 36.67L30.67 39.81C29.71 40.55 29.23 40.91 28.74 41.06C27.98 41.29 27.15 41.18 26.47 40.76C26.03 40.49 25.66 40.01 24.93 39.05C24.19 38.09 23.82 37.61 23.68 37.11C23.45 36.35 23.56 35.52 23.98 34.84C24.25 34.41 24.73 34.04 25.69 33.3L29.78 30.16" stroke="#3DA6D3" stroke-opacity="1.000000" stroke-width="7.000000"/>
		<path id="Vector" d="M19 53L35 53" stroke="#3DA6D3" stroke-opacity="1.000000" stroke-width="7.000000" stroke-linecap="round"/>
	</g>
</svg>
