<svg width="82.000000" height="82.000000" viewBox="0 0 82 82" fill="none" xmlns="http://www.w3.org/2000/svg" xmlns:xlink="http://www.w3.org/1999/xlink">
	<desc>
			Created with Pixso.
	</desc>
	<defs>
		<clipPath id="clip45_4181">
			<rect id="icon" width="82.000000" height="82.000000" fill="white" fill-opacity="0"/>
		</clipPath>
	</defs>
	<g clip-path="url(#clip45_4181)">
		<rect id="Medico/Line/Wheelchair" width="82.000000" height="82.000000" fill="#FFFFFF" fill-opacity="0"/>
		<path id="Vector" d="M31 71.72C19.95 71.72 11 62.76 11 51.72C11 40.67 19.95 31.72 31 31.72C42.04 31.72 51 40.67 51 51.72C51 62.76 42.04 71.72 31 71.72Z" stroke="#3DA6D3" stroke-opacity="1.000000" stroke-width="7.000000"/>
		<path id="Vector" d="M61.24 71.72C58.87 71.72 56.96 69.8 56.96 67.43C56.96 65.07 58.87 63.16 61.24 63.16C63.6 63.16 65.51 65.07 65.51 67.43C65.51 69.8 63.6 71.72 61.24 71.72Z" stroke="#3DA6D3" stroke-opacity="1.000000" stroke-width="7.000000"/>
		<path id="Vector" d="M61.23 62.78L61.23 56.27L61.23 42.33C61.23 42.06 61.01 41.83 60.73 41.83L55.67 41.83L48.39 41.83M55.67 41.83L55.67 27.33C55.67 26.51 55 25.83 54.17 25.83L26.32 25.83M26.32 32.15L26.32 25.83L26.32 12C26.32 11.44 25.87 11 25.32 11L18.87 11M61.23 56.27L69 56.27" stroke="#3DA6D3" stroke-opacity="1.000000" stroke-width="7.000000"/>
	</g>
</svg>
