<svg width="64.000000" height="64.000000" viewBox="0 0 64 64" fill="none" xmlns="http://www.w3.org/2000/svg" xmlns:xlink="http://www.w3.org/1999/xlink">
	<desc>
			Created with Pixso.
	</desc>
	<defs>
		<clipPath id="clip2241_2499">
			<rect id="icon" rx="-0.500000" width="63.000000" height="63.000000" transform="translate(0.500000 0.500000)" fill="white" fill-opacity="0"/>
		</clipPath>
	</defs>
	<g clip-path="url(#clip2241_2499)">
		<rect id="Medico/Line/Medical Kit" rx="-0.500000" width="63.000000" height="63.000000" transform="translate(0.500000 0.500000)" fill="#FFFFFF" fill-opacity="0"/>
		<path id="Vector" d="M56.97 51.45C56.97 53.3 56.97 54.22 56.41 54.8C56.39 54.82 56.38 54.83 56.36 54.85C55.78 55.41 54.86 55.41 53.01 55.41L10.98 55.41C9.13 55.41 8.21 55.41 7.63 54.85C7.61 54.83 7.6 54.82 7.58 54.8C7.02 54.22 7.02 53.3 7.02 51.45L7.02 23.47C7.02 21.62 7.02 20.7 7.58 20.12C7.6 20.1 7.61 20.09 7.63 20.07C8.21 19.51 9.13 19.51 10.98 19.51L21.07 19.51L42.92 19.51L53.01 19.51C54.86 19.51 55.78 19.51 56.36 20.07C56.38 20.09 56.39 20.1 56.41 20.12C56.97 20.7 56.97 21.62 56.97 23.47L56.97 51.45ZM21.07 19.51L21.07 11.55C21.07 10.17 21.07 9.47 21.49 9.04C21.5 9.03 21.51 9.01 21.52 9C21.96 8.58 22.65 8.58 24.04 8.58L39.95 8.58C41.33 8.58 42.03 8.58 42.46 9C42.48 9.01 42.49 9.03 42.5 9.04C42.92 9.47 42.92 10.16 42.92 11.55L42.92 19.51" stroke="#3DA6D3" stroke-opacity="1.000000" stroke-width="4.000000"/>
		<path id="Vector" d="M28.66 28.76C28.9 28.18 29.35 27.73 29.93 27.49C30.36 27.31 30.9 27.31 32 27.31C33.08 27.31 33.63 27.31 34.06 27.49C34.64 27.73 35.09 28.18 35.33 28.76C35.51 29.19 35.51 29.73 35.51 30.82L35.51 33.05C35.51 33.11 35.51 33.13 35.52 33.15C35.54 33.16 35.57 33.16 35.62 33.16L37.85 33.16C38.94 33.16 39.48 33.16 39.91 33.34C40.49 33.58 40.94 34.04 41.18 34.61C41.36 35.04 41.36 35.59 41.36 36.68C41.36 37.77 41.36 38.31 41.18 38.75C40.94 39.32 40.49 39.77 39.91 40.01C39.48 40.19 38.94 40.19 37.85 40.19L35.62 40.19C35.57 40.19 35.54 40.19 35.52 40.21C35.51 40.22 35.51 40.25 35.51 40.3L35.51 42.53C35.51 43.62 35.51 44.17 35.33 44.6C35.09 45.17 34.64 45.63 34.06 45.86C33.63 46.04 33.08 46.04 32 46.04C30.9 46.04 30.36 46.04 29.93 45.86C29.35 45.63 28.9 45.17 28.66 44.6C28.48 44.17 28.48 43.62 28.48 42.53L28.48 40.3C28.48 40.25 28.48 40.22 28.46 40.21C28.45 40.19 28.42 40.19 28.37 40.19L26.14 40.19C25.05 40.19 24.5 40.19 24.07 40.01C23.5 39.77 23.04 39.32 22.81 38.75C22.63 38.31 22.63 37.77 22.63 36.68C22.63 35.59 22.63 35.04 22.81 34.61C23.04 34.04 23.5 33.58 24.07 33.34C24.5 33.16 25.05 33.16 26.14 33.16L28.37 33.16C28.42 33.16 28.45 33.16 28.46 33.15C28.48 33.13 28.48 33.11 28.48 33.05L28.48 30.82C28.48 29.73 28.48 29.19 28.66 28.76Z" stroke="#3DA6D3" stroke-opacity="1.000000" stroke-width="4.000000"/>
	</g>
</svg>
