<svg width="40.000000" height="40.000000" viewBox="0 0 40 40" fill="none" xmlns="http://www.w3.org/2000/svg" xmlns:xlink="http://www.w3.org/1999/xlink">
	<desc>
			Created with Pixso.
	</desc>
	<defs>
		<clipPath id="clip2932_26224">
			<rect id="psychotherapy-line" width="40.000000" height="40.000000" fill="white" fill-opacity="0"/>
		</clipPath>
		<clipPath id="clip2932_26228">
			<rect id="dossier-line" width="40.000000" height="40.000000" fill="white" fill-opacity="0"/>
		</clipPath>
		<clipPath id="clip2932_26232">
			<rect id="empathize-line" width="40.000000" height="40.000000" fill="white" fill-opacity="0"/>
		</clipPath>
		<clipPath id="clip2932_26236">
			<rect id="first-aid-kit-line" width="40.000000" height="40.000000" fill="white" fill-opacity="0"/>
		</clipPath>
		<clipPath id="clip2932_26240">
			<rect id="health-book-line" width="40.000000" height="40.000000" fill="white" fill-opacity="0"/>
		</clipPath>
		<clipPath id="clip2932_26244">
			<rect id="nurse-line" width="40.000000" height="40.000000" fill="white" fill-opacity="0"/>
		</clipPath>
	</defs>
	<rect id="empathize-line" width="40.000000" height="40.000000" fill="#FFFFFF" fill-opacity="0"/>
	<g clip-path="url(#clip2932_26232)">
		<path id="Vector" d="M30.6 18.3C33.21 20.9 33.21 25.12 30.6 27.72L21.17 37.15C20.52 37.8 19.47 37.8 18.82 37.15L9.39 27.72C6.79 25.12 6.79 20.9 9.39 18.29C11.99 15.69 16.21 15.69 18.82 18.29L19.99 19.47L21.17 18.29C23.78 15.69 28 15.69 30.6 18.3ZM11.75 20.65C10.45 21.95 10.45 24.06 11.75 25.36L20 33.61L28.25 25.36C29.55 24.06 29.55 21.95 28.25 20.65C26.94 19.35 24.83 19.35 23.53 20.65L19.99 24.18L16.46 20.65C15.16 19.35 13.05 19.35 11.75 20.65ZM20 1.66C23.68 1.66 26.66 4.65 26.66 8.33C26.66 12.01 23.68 15 20 15C16.31 15 13.33 12.01 13.33 8.33C13.33 4.65 16.31 1.66 20 1.66ZM20 5C18.15 5 16.66 6.49 16.66 8.33C16.66 10.17 18.15 11.66 20 11.66C21.84 11.66 23.33 10.17 23.33 8.33C23.33 6.49 21.84 5 20 5Z" fill="#3DA6D3" fill-opacity="1.000000" fill-rule="evenodd"/>
	</g>
</svg>
