<svg width="16.000000" height="16.000000" viewBox="0 0 16 16" fill="none" xmlns="http://www.w3.org/2000/svg" xmlns:xlink="http://www.w3.org/1999/xlink">
	<desc>
			Created with Pixso.
	</desc>
	<defs>
		<clipPath id="clip12_24266">
			<rect id="map-pin" width="16.000000" height="16.000000" fill="white" fill-opacity="0"/>
		</clipPath>
	</defs>
	<rect id="map-pin" width="16.000000" height="16.000000" fill="#FFFFFF" fill-opacity="0"/>
	<g clip-path="url(#clip12_24266)">
		<path id="Vector" d="M8 14.66C8 14.66 2.66 10.66 2.66 6.66C2.66 5.25 3.23 3.89 4.23 2.89C5.23 1.89 6.58 1.33 8 1.33C9.41 1.33 10.77 1.89 11.77 2.89C12.77 3.89 13.33 5.25 13.33 6.66C13.33 10.66 8 14.66 8 14.66Z" stroke="#111010" stroke-opacity="1.000000" stroke-width="1.500000" stroke-linejoin="round"/>
		<path id="Vector" d="M8 8.66C6.89 8.66 6 7.77 6 6.66C6 5.56 6.89 4.66 8 4.66C9.1 4.66 10 5.56 10 6.66C10 7.77 9.1 8.66 8 8.66Z" stroke="#111010" stroke-opacity="1.000000" stroke-width="1.500000" stroke-linejoin="round"/>
	</g>
</svg>
