<svg width="40.000000" height="40.000000" viewBox="0 0 40 40" fill="none" xmlns="http://www.w3.org/2000/svg" xmlns:xlink="http://www.w3.org/1999/xlink">
	<desc>
			Created with Pixso.
	</desc>
	<defs>
		<clipPath id="clip2436_11280">
			<rect id="syringe-line" width="40.000000" height="40.000000" fill="white" fill-opacity="0"/>
		</clipPath>
	</defs>
	<rect id="syringe-line" width="40.000000" height="40.000000" fill="#FFFFFF" fill-opacity="0"/>
	<g clip-path="url(#clip2436_11280)">
		<path id="Vector" d="M36.12 13.29L33.77 15.65L30.23 12.12L26.7 15.65L32.59 21.54L30.23 23.9L29.05 22.72L18.45 33.33L9.02 33.33L5.48 36.86L3.13 34.51L6.66 30.97L6.66 21.54L17.27 10.94L16.09 9.76L18.45 7.4L24.34 13.29L27.87 9.76L24.34 6.22L26.7 3.87L36.12 13.29ZM26.7 20.37L19.62 13.29L17.27 15.65L20.8 19.19L18.45 21.54L14.91 18.01L12.55 20.37L16.09 23.9L13.73 26.26L10.2 22.72L10 22.92L10 30L17.07 30L26.7 20.37Z" fill="#FFFFFF" fill-opacity="1.000000" fill-rule="evenodd"/>
	</g>
</svg>
