<svg width="40.000000" height="40.000000" viewBox="0 0 40 40" fill="none" xmlns="http://www.w3.org/2000/svg" xmlns:xlink="http://www.w3.org/1999/xlink">
	<desc>
			Created with Pixso.
	</desc>
	<defs>
		<clipPath id="clip2436_11272">
			<rect id="time-line" width="40.000000" height="40.000000" fill="white" fill-opacity="0"/>
		</clipPath>
	</defs>
	<rect id="time-line" width="40.000000" height="40.000000" fill="#FFFFFF" fill-opacity="0"/>
	<g clip-path="url(#clip2436_11272)">
		<path id="Vector" d="M20 36.66C10.79 36.66 3.33 29.2 3.33 20C3.33 10.79 10.79 3.33 20 3.33C29.2 3.33 36.66 10.79 36.66 20C36.66 29.2 29.2 36.66 20 36.66ZM20 33.33C23.53 33.33 26.92 31.92 29.42 29.42C31.92 26.92 33.33 23.53 33.33 20C33.33 16.46 31.92 13.07 29.42 10.57C26.92 8.07 23.53 6.66 20 6.66C16.46 6.66 13.07 8.07 10.57 10.57C8.07 13.07 6.66 16.46 6.66 20C6.66 23.53 8.07 26.92 10.57 29.42C13.07 31.92 16.46 33.33 20 33.33ZM21.66 20L28.33 20L28.33 23.33L18.33 23.33L18.33 11.66L21.66 11.66L21.66 20Z" fill="#FFFFFF" fill-opacity="1.000000" fill-rule="evenodd"/>
	</g>
</svg>
