<svg width="64.000000" height="64.000000" viewBox="0 0 64 64" fill="none" xmlns="http://www.w3.org/2000/svg" xmlns:xlink="http://www.w3.org/1999/xlink">
	<desc>
			Created with Pixso.
	</desc>
	<defs>
		<clipPath id="clip13_4564">
			<rect id="icon" rx="-0.500000" width="63.000000" height="63.000000" transform="translate(0.500000 0.500000)" fill="white" fill-opacity="0"/>
		</clipPath>
	</defs>
	<g clip-path="url(#clip13_4564)">
		<rect id="Medico/Line/Body" rx="-0.500000" width="63.000000" height="63.000000" transform="translate(0.500000 0.500000)" fill="#FFFFFF" fill-opacity="0"/>
		<path id="Vector" d="M13.26 19.51L50.73 19.51C55.41 19.51 55.41 25.75 50.73 25.75L44.48 25.75C42.76 25.75 41.36 27.15 41.36 28.87L41.36 58.53C41.36 63.21 35.12 63.21 35.12 58.53C35.12 53.85 35.12 44.48 32 44.48C28.87 44.48 28.87 53.85 28.87 58.53C28.87 63.21 22.63 63.21 22.63 58.53L22.63 28.86C22.63 27.14 21.23 25.75 19.51 25.75L13.26 25.75C8.58 25.75 8.58 19.51 13.26 19.51Z" stroke="#3DA6D3" stroke-opacity="1.000000" stroke-width="4.000000"/>
		<path id="Vector" d="M32 14.83C28.55 14.83 25.75 12.03 25.75 8.58C25.75 5.13 28.55 2.34 32 2.34C35.44 2.34 38.24 5.13 38.24 8.58C38.24 12.03 35.44 14.83 32 14.83Z" stroke="#3DA6D3" stroke-opacity="1.000000" stroke-width="4.000000"/>
	</g>
</svg>
