<svg width="64.000000" height="64.000000" viewBox="0 0 64 64" fill="none" xmlns="http://www.w3.org/2000/svg" xmlns:xlink="http://www.w3.org/1999/xlink">
	<desc>
			Created with Pixso.
	</desc>
	<defs>
		<clipPath id="clip13_4652">
			<rect id="icon" rx="-0.500000" width="63.000000" height="63.000000" transform="translate(0.500000 0.500000)" fill="white" fill-opacity="0"/>
		</clipPath>
	</defs>
	<g clip-path="url(#clip13_4652)">
		<rect id="Medico/Line/Microscope" rx="-0.500000" width="63.000000" height="63.000000" transform="translate(0.500000 0.500000)" fill="#FFFFFF" fill-opacity="0"/>
		<path id="Vector" d="M45.6 52.29C46.71 52.29 47.6 53.18 47.6 54.29L47.6 58.03C47.6 58.31 47.38 58.53 47.1 58.53L16.89 58.53C16.61 58.53 16.39 58.31 16.39 58.03L16.39 54.29C16.39 53.18 17.28 52.29 18.39 52.29L45.6 52.29Z" stroke="#3DA6D3" stroke-opacity="1.000000" stroke-width="4.000000"/>
		<path id="Vector" d="M15.77 41.36C15.77 41.36 18.05 44.66 19.55 46C22.01 48.18 25 49.68 28.22 50.34C31.44 51 34.78 50.81 37.9 49.77C41.02 48.74 43.81 46.9 46 44.44C48.18 41.98 49.68 38.99 50.34 35.77C51 32.55 50.81 29.21 49.77 26.09C49.23 24.45 48.46 22.91 47.5 21.49L47.27 21.24M42.92 24.19L43.23 24.77C43.83 25.71 44.32 26.72 44.67 27.78C45.41 30.01 45.55 32.39 45.08 34.69C44.61 36.99 43.54 39.12 41.98 40.87C40.42 42.62 38.43 43.93 36.21 44.67C33.98 45.41 31.6 45.55 29.3 45.08C26.73 44.55 22.47 41.36 22.47 41.36M42.92 14.83C44.3 14.83 45.54 15.42 46.4 16.37C47.15 17.2 47.6 18.3 47.6 19.51C47.6 20.12 47.49 20.7 47.27 21.24C46.58 22.97 44.89 24.19 42.92 24.19C41.27 24.19 39.82 23.34 38.99 22.05C38.51 21.32 38.24 20.44 38.24 19.51C38.24 16.92 40.33 14.83 42.92 14.83ZM38.99 22.05L29.92 28.99C29.05 29.66 27.8 29.5 27.14 28.62L23.25 23.54C22.92 23.12 22.76 22.91 22.66 22.71C22.18 21.79 22.33 20.66 23.03 19.89C23.18 19.73 23.39 19.57 23.81 19.24L39.4 7.3C40.88 6.17 41.62 5.61 42.42 5.58C42.69 5.58 42.96 5.61 43.22 5.69C43.99 5.92 44.55 6.66 45.68 8.13L47.6 10.64C48.35 11.62 48.73 12.1 48.85 12.61C49 13.22 48.91 13.86 48.61 14.41C48.36 14.87 47.87 15.24 46.9 15.99L46.4 16.37M50.59 7.14C51.42 8.22 51.31 9.78 50.22 10.66C49.49 11.25 48.46 11.23 47.85 10.45L46.89 9.19L45.93 7.93C45.33 7.16 45.58 6.14 46.34 5.59C47.47 4.77 49.01 5.07 49.84 6.16L50.59 7.14ZM45.93 7.93L45.68 8.13M47.85 10.45L47.6 10.64M27.14 28.62L23.94 31.07C23.19 31.65 22.82 31.93 22.43 32.05C21.83 32.23 21.19 32.14 20.66 31.81C20.32 31.6 20.03 31.23 19.46 30.48C18.88 29.73 18.59 29.35 18.48 28.97C18.3 28.37 18.39 27.73 18.71 27.2C18.92 26.85 19.3 26.57 20.05 25.99L23.25 23.54" stroke="#3DA6D3" stroke-opacity="1.000000" stroke-width="4.000000"/>
		<path id="Vector" d="M14.82 41.36L27.31 41.36" stroke="#3DA6D3" stroke-opacity="1.000000" stroke-width="4.000000" stroke-linecap="round"/>
	</g>
</svg>
