<svg width="64.000000" height="64.000000" viewBox="0 0 64 64" fill="none" xmlns="http://www.w3.org/2000/svg" xmlns:xlink="http://www.w3.org/1999/xlink">
	<desc>
			Created with Pixso.
	</desc>
	<defs>
		<clipPath id="clip13_4476">
			<rect id="icon" rx="-0.500000" width="63.000000" height="63.000000" transform="translate(0.500000 0.500000)" fill="white" fill-opacity="0"/>
		</clipPath>
	</defs>
	<g clip-path="url(#clip13_4476)">
		<rect id="Medico/Line/Pill" rx="-0.500000" width="63.000000" height="63.000000" transform="translate(0.500000 0.500000)" fill="#FFFFFF" fill-opacity="0"/>
		<path id="Vector" d="M48.75 5.46C49.67 5.46 50.13 5.46 50.42 5.74C50.43 5.75 50.44 5.75 50.44 5.76C50.73 6.05 50.73 6.51 50.73 7.44L50.73 56.55C50.73 57.47 50.73 57.94 50.44 58.23C50.44 58.24 50.43 58.24 50.42 58.25C50.13 58.53 49.67 58.53 48.75 58.53L15.25 58.53C14.32 58.53 13.86 58.53 13.57 58.25C13.56 58.24 13.55 58.24 13.55 58.23C13.26 57.94 13.26 57.47 13.26 56.55L13.26 7.44C13.26 6.51 13.26 6.05 13.55 5.76C13.55 5.75 13.56 5.75 13.57 5.74C13.86 5.46 14.32 5.46 15.25 5.46L48.75 5.46Z" stroke="#3DA6D3" stroke-opacity="1.000000" stroke-width="4.000000"/>
		<circle id="Vector" cx="22.632812" cy="16.388672" r="3.121951" stroke="#3DA6D3" stroke-opacity="1.000000" stroke-width="4.000000"/>
		<circle id="Vector" cx="41.363281" cy="16.388672" r="3.121951" stroke="#3DA6D3" stroke-opacity="1.000000" stroke-width="4.000000"/>
		<circle id="Vector" cx="22.632812" cy="32.000000" r="3.121951" stroke="#3DA6D3" stroke-opacity="1.000000" stroke-width="4.000000"/>
		<circle id="Vector" cx="41.363281" cy="32.000000" r="3.121951" stroke="#3DA6D3" stroke-opacity="1.000000" stroke-width="4.000000"/>
		<circle id="Vector" cx="22.632812" cy="47.609375" r="3.121951" stroke="#3DA6D3" stroke-opacity="1.000000" stroke-width="4.000000"/>
		<circle id="Vector" cx="41.363281" cy="47.609375" r="3.121951" stroke="#3DA6D3" stroke-opacity="1.000000" stroke-width="4.000000"/>
		<path id="Vector" d="M32 13.26L32 50.73" stroke="#3DA6D3" stroke-opacity="1.000000" stroke-width="4.000000" stroke-linecap="round"/>
	</g>
</svg>
