<svg width="64.000000" height="64.000000" viewBox="0 0 64 64" fill="none" xmlns="http://www.w3.org/2000/svg" xmlns:xlink="http://www.w3.org/1999/xlink">
	<desc>
			Created with Pixso.
	</desc>
	<defs>
		<clipPath id="clip13_4388">
			<rect id="icon" rx="-0.500000" width="63.000000" height="63.000000" transform="translate(0.500000 0.500000)" fill="white" fill-opacity="0"/>
		</clipPath>
	</defs>
	<g clip-path="url(#clip13_4388)">
		<rect id="Medico/Line/Stethoscope" rx="-0.500000" width="63.000000" height="63.000000" transform="translate(0.500000 0.500000)" fill="#FFFFFF" fill-opacity="0"/>
		<path id="Vector" d="M35.12 10.14L35.42 10.14C38.19 10.14 39.58 10.14 40.45 10.99C40.47 11.01 40.5 11.03 40.52 11.05C41.36 11.92 41.36 13.31 41.36 16.08L41.36 35.72C41.36 41.26 41.36 44.03 39.67 45.78C39.63 45.83 39.58 45.87 39.54 45.91C37.79 47.6 35.02 47.6 29.48 47.6L25.75 47.6L22.02 47.6C16.48 47.6 13.71 47.6 11.97 45.91C11.92 45.87 11.88 45.83 11.83 45.78C10.14 44.03 10.14 41.26 10.14 35.72L10.14 16.08C10.14 13.31 10.14 11.92 10.99 11.05C11.01 11.03 11.03 11.01 11.06 10.99C11.93 10.14 13.31 10.14 16.08 10.14L17.95 10.14M21.07 13.26C19.35 13.26 17.95 11.86 17.95 10.14C17.95 8.42 19.35 7.02 21.07 7.02C22.8 7.02 24.19 8.42 24.19 10.14C24.19 11.86 22.8 13.26 21.07 13.26ZM32 13.26C30.27 13.26 28.87 11.86 28.87 10.14C28.87 8.42 30.27 7.02 32 7.02C33.72 7.02 35.12 8.42 35.12 10.14C35.12 11.86 33.72 13.26 32 13.26ZM25.75 47.6C25.75 63.21 52.29 64.77 52.29 47.6L52.29 35.12" stroke="#3DA6D3" stroke-opacity="1.000000" stroke-width="4.000000"/>
		<path id="Vector" d="M52.29 35.12C49.7 35.12 47.6 33.02 47.6 30.43C47.6 27.85 49.7 25.75 52.29 25.75C54.87 25.75 56.97 27.85 56.97 30.43C56.97 33.02 54.87 35.12 52.29 35.12Z" stroke="#3DA6D3" stroke-opacity="1.000000" stroke-width="4.000000"/>
		<path id="Vector" d="M52.32 30.4L52.32 30.43L52.29 30.43L52.29 30.4L52.32 30.4Z" stroke="#FFFFFF" stroke-opacity="1.000000" stroke-width="4.000000" stroke-linejoin="round"/>
	</g>
</svg>
