<svg width="40.000000" height="40.000000" viewBox="0 0 40 40" fill="none" xmlns="http://www.w3.org/2000/svg" xmlns:xlink="http://www.w3.org/1999/xlink">
	<desc>
			Created with Pixso.
	</desc>
	<defs>
		<clipPath id="clip2468_9843">
			<rect id="photo-icon" width="40.000000" height="40.000000" fill="white" fill-opacity="0"/>
		</clipPath>
	</defs>
	<rect id="photo-icon" width="40.000000" height="40.000000" fill="#FFFFFF" fill-opacity="0"/>
	<g clip-path="url(#clip2468_9843)">
		<path id="Vector" d="M15.83 6.66L11.66 11.66L6.66 11.66C5.78 11.66 4.93 12.01 4.3 12.64C3.68 13.26 3.33 14.11 3.33 15L3.33 30C3.33 30.88 3.68 31.73 4.3 32.35C4.93 32.98 5.78 33.33 6.66 33.33L33.33 33.33C34.21 33.33 35.06 32.98 35.68 32.35C36.31 31.73 36.66 30.88 36.66 30L36.66 15C36.66 14.11 36.31 13.26 35.68 12.64C35.06 12.01 34.21 11.66 33.33 11.66L28.33 11.66L24.16 6.66L15.83 6.66Z" stroke="#FFFFFF" stroke-opacity="1.000000" stroke-width="3.000000" stroke-linejoin="round"/>
		<path id="Vector" d="M20 26.66C17.23 26.66 15 24.42 15 21.66C15 18.9 17.23 16.66 20 16.66C22.76 16.66 25 18.9 25 21.66C25 24.42 22.76 26.66 20 26.66Z" stroke="#FFFFFF" stroke-opacity="1.000000" stroke-width="3.000000" stroke-linejoin="round"/>
	</g>
</svg>
