<svg width="16.000000" height="16.000000" viewBox="0 0 16 16" fill="none" xmlns="http://www.w3.org/2000/svg" xmlns:xlink="http://www.w3.org/1999/xlink">
	<desc>
			Created with Pixso.
	</desc>
	<defs>
		<clipPath id="clip12_24257">
			<rect id="phone-icon" width="16.000000" height="16.000000" fill="white" fill-opacity="0"/>
		</clipPath>
	</defs>
	<rect id="phone-icon" width="16.000000" height="16.000000" fill="#FFFFFF" fill-opacity="0"/>
	<g clip-path="url(#clip12_24257)">
		<path id="Vector" d="M14.66 13.28C14.66 13.46 14.62 13.65 14.55 13.82C14.48 13.99 14.37 14.14 14.23 14.26C14.09 14.39 13.93 14.49 13.75 14.54C13.58 14.6 13.39 14.63 13.21 14.61C11.16 14.39 9.19 13.68 7.45 12.56C5.84 11.54 4.48 10.17 3.45 8.56C2.33 6.82 1.62 4.84 1.41 2.78C1.39 2.6 1.41 2.41 1.47 2.24C1.53 2.06 1.62 1.9 1.75 1.76C1.87 1.63 2.03 1.52 2.19 1.44C2.37 1.37 2.55 1.33 2.73 1.33L4.73 1.33C5.06 1.33 5.37 1.44 5.62 1.65C5.86 1.86 6.02 2.16 6.07 2.48C6.15 3.12 6.31 3.75 6.53 4.35C6.62 4.59 6.64 4.85 6.59 5.1C6.54 5.35 6.41 5.58 6.23 5.75L5.39 6.6C6.33 8.27 7.72 9.65 9.39 10.6L10.23 9.75C10.41 9.58 10.64 9.45 10.89 9.4C11.14 9.35 11.4 9.37 11.64 9.46C12.25 9.68 12.87 9.84 13.51 9.92C13.84 9.97 14.13 10.13 14.34 10.38C14.56 10.63 14.67 10.95 14.66 11.28L14.66 13.28Z" stroke="#111010" stroke-opacity="1.000000" stroke-width="1.500000" stroke-linejoin="round"/>
	</g>
</svg>
