<svg width="24.000000" height="24.000000" viewBox="0 0 24 24" fill="none" xmlns="http://www.w3.org/2000/svg" xmlns:xlink="http://www.w3.org/1999/xlink">
	<desc>
			Created with Pixso.
	</desc>
	<defs>
		<clipPath id="clip12_15784">
			<rect id="youtube-icon" width="24.000000" height="24.000000" fill="white" fill-opacity="0"/>
		</clipPath>
	</defs>
	<rect id="youtube-icon" width="24.000000" height="24.000000" fill="#FFFFFF" fill-opacity="0"/>
	<g clip-path="url(#clip12_15784)">
		<path id="Vector" d="M2.5 7C2.59 6.66 2.76 6.36 3.01 6.11C3.26 5.86 3.56 5.69 3.9 5.59C9.26 4.71 14.73 4.71 20.1 5.59C20.43 5.69 20.74 5.86 20.98 6.11C21.23 6.36 21.41 6.66 21.5 7C22.19 10.29 22.19 13.7 21.5 17C21.41 17.33 21.23 17.63 20.98 17.88C20.74 18.13 20.43 18.3 20.1 18.4C14.73 19.28 9.26 19.28 3.9 18.4C3.56 18.3 3.26 18.13 3.01 17.88C2.76 17.63 2.59 17.33 2.5 17C1.8 13.7 1.8 10.29 2.5 7Z" stroke="#3DA6D3" stroke-opacity="1.000000" stroke-width="2.000000" stroke-linejoin="round"/>
		<path id="Vector" d="M15 12L10 9L10 15L15 12Z" stroke="#3DA6D3" stroke-opacity="1.000000" stroke-width="2.000000" stroke-linejoin="round"/>
	</g>
</svg>
