<svg width="120.152344" height="39.572266" viewBox="0 0 120.152 39.5723" fill="none" xmlns="http://www.w3.org/2000/svg" xmlns:xlink="http://www.w3.org/1999/xlink">
	<desc>
			Created with Pixso.
	</desc>
	<defs/>
	<path id="Vector" d="M88.44 4.83C89.66 4.83 90.64 5.8 90.64 7C90.64 8.2 89.66 9.17 88.44 9.17C87.23 9.17 86.24 8.2 86.24 7C86.24 5.8 87.23 4.83 88.44 4.83Z" fill="#28B4AD" fill-opacity="1.000000" fill-rule="nonzero"/>
	<path id="Vector" d="M52.94 9.08L52.94 23.81C52.94 23.85 52.91 23.87 52.88 23.87L49.47 23.87C49.44 23.87 49.41 23.85 49.41 23.81L49.41 5.66C49.41 5.63 49.44 5.6 49.47 5.6L58.59 5.6C58.62 5.6 58.65 5.63 58.65 5.66L58.65 8.96C58.65 8.99 58.62 9.02 58.59 9.02L53 9.02C52.97 9.02 52.94 9.05 52.94 9.08Z" fill="#28B4AD" fill-opacity="1.000000" fill-rule="nonzero"/>
	<path id="Vector" d="M106.14 17.78C105.46 10.14 115.85 7.36 120.14 13.03C120.16 13.07 120.15 13.11 120.12 13.14C120.12 13.14 120.11 13.14 120.11 13.15L117.38 14.62C117.35 14.64 117.32 14.63 117.29 14.61C116.01 13.46 115.03 13.05 113.26 13.22C108.79 13.66 108.19 19.91 112.54 20.95C114.39 21.4 115.97 20.94 117.3 19.6C117.33 19.57 117.37 19.57 117.4 19.59L119.98 21.33C120 21.35 120.01 21.39 119.99 21.42C119.99 21.42 119.99 21.42 119.99 21.42C117.94 23.95 114.77 24.61 111.66 23.97C108.6 23.34 106.41 20.8 106.14 17.78Z" fill="#28B4AD" fill-opacity="1.000000" fill-rule="nonzero"/>
	<path id="Vector" d="M79.87 15.4C79.85 15.35 79.83 15.35 79.81 15.4L76.35 23.82C76.34 23.85 76.3 23.87 76.27 23.87L72.95 23.87C72.92 23.87 72.89 23.85 72.89 23.81C72.89 23.81 72.89 23.8 72.89 23.79L78.67 10.41C78.68 10.37 78.72 10.35 78.76 10.35L80.85 10.35C80.88 10.35 80.91 10.37 80.92 10.4L86.65 23.57C86.69 23.67 86.71 23.67 86.71 23.56L86.71 10.47C86.71 10.4 86.77 10.34 86.84 10.34L86.84 10.34L90.09 10.37C90.11 10.37 90.13 10.39 90.13 10.41L90.13 23.82C90.13 23.85 90.1 23.87 90.08 23.87L83.36 23.87C83.33 23.87 83.3 23.85 83.28 23.82L79.87 15.4Z" fill="#28B4AD" fill-opacity="1.000000" fill-rule="nonzero"/>
	<path id="Vector" d="M69.74 15.4C69.72 15.41 69.7 15.43 69.67 15.43L62.43 15.43C62.42 15.43 62.42 15.42 62.41 15.42C62.41 15.42 62.41 15.42 62.41 15.42C62.41 15.42 62.41 15.42 62.41 15.42C62.41 15.42 62.4 15.42 62.4 15.41C62.4 15.41 62.4 15.41 62.4 15.41C62.39 15.41 62.39 15.41 62.39 15.4C62.39 15.4 62.39 15.4 62.39 15.4C62.39 15.39 62.39 15.39 62.39 15.39C62.39 15.39 62.39 15.39 62.39 15.39C62.39 15.38 62.39 15.38 62.39 15.37C63.68 12.11 68.42 12.11 69.76 15.29C69.77 15.32 69.77 15.34 69.76 15.37C69.76 15.37 69.75 15.38 69.75 15.38C69.75 15.39 69.75 15.39 69.74 15.4ZM67.66 10.19C63.76 9.38 59.86 11.5 59.04 15.48C58.11 20 60.98 24.04 65.73 24.19C68.35 24.27 70.68 23.47 72.21 21.27C72.21 21.27 72.22 21.27 72.22 21.27C72.23 21.24 72.22 21.21 72.19 21.19L69.47 19.91C69.44 19.9 69.4 19.91 69.38 19.92C69.13 20.1 68.88 20.33 68.66 20.47C66.21 22 62.8 21.21 62.2 18.12C62.2 18.12 62.2 18.11 62.2 18.11C62.2 18.08 62.22 18.07 62.25 18.07C64.59 18.08 66.94 18.08 69.29 18.07C70.35 18.06 71.86 18.1 73.15 18.06C73.18 18.06 73.21 18.03 73.21 18C73.41 14.27 71.54 11 67.66 10.19Z" fill="#28B4AD" fill-opacity="1.000000" fill-rule="nonzero"/>
	<path id="Vector" d="M100.87 19.97C99.6 21.24 97.5 21.39 96.05 20.36C94.19 19.04 94.07 16.15 95.44 14.48C96.46 13.25 98.17 12.94 99.65 13.45C102.27 14.37 102.72 18.1 100.87 19.97ZM101.33 10.72C96.76 8.59 91.37 11.68 91.11 16.64C90.98 19.09 91.86 21.09 93.74 22.64C94.72 23.44 95.83 23.93 97.07 24.11C100.91 24.65 104.44 22.41 105.3 18.64C106.04 15.36 104.37 12.14 101.33 10.72Z" fill="#28B4AD" fill-opacity="1.000000" fill-rule="nonzero"/>
	<path id="Vector" d="M52.84 30.92L52.84 32.03C52.84 32.1 52.8 32.14 52.72 32.14L52.25 32.14C52.17 32.14 52.13 32.1 52.13 32.03L52.13 31.44L49.65 31.44C49.62 31.44 49.59 31.43 49.57 31.41C49.55 31.39 49.54 31.36 49.54 31.33L49.54 27.86C49.54 27.83 49.55 27.8 49.57 27.78C49.59 27.76 49.62 27.75 49.65 27.75L50.13 27.75C50.16 27.75 50.19 27.76 50.21 27.78C50.23 27.8 50.25 27.83 50.25 27.86L50.25 30.79L51.74 30.79L51.74 27.86C51.74 27.79 51.77 27.75 51.84 27.75L52.32 27.75C52.35 27.75 52.38 27.76 52.4 27.78C52.42 27.8 52.44 27.83 52.44 27.86L52.44 30.81L52.71 30.81C52.74 30.81 52.77 30.82 52.8 30.84C52.82 30.86 52.84 30.89 52.84 30.92ZM53.84 31.34L53.84 27.85C53.84 27.79 53.87 27.75 53.94 27.75L56.39 27.75C56.46 27.75 56.5 27.79 56.5 27.85L56.5 28.33C56.5 28.4 56.46 28.43 56.39 28.43L54.57 28.43L54.57 29.18L55.96 29.18C56.03 29.18 56.07 29.22 56.07 29.28L56.07 29.75C56.07 29.82 56.03 29.85 55.96 29.85L54.57 29.85L54.57 30.76L56.44 30.76C56.51 30.76 56.55 30.79 56.55 30.86L56.55 31.34C56.55 31.4 56.51 31.44 56.44 31.44L53.94 31.44C53.87 31.44 53.84 31.4 53.84 31.34ZM60.04 31.34L60.04 29.85L58.36 29.85L58.36 31.34C58.36 31.4 58.32 31.44 58.25 31.44L57.72 31.44C57.66 31.44 57.63 31.4 57.63 31.34L57.63 27.86C57.63 27.79 57.66 27.75 57.72 27.75L58.27 27.75C58.33 27.75 58.36 27.79 58.36 27.85L58.36 29.15L60.04 29.15L60.04 27.86C60.04 27.79 60.07 27.75 60.13 27.75L60.67 27.75C60.74 27.75 60.76 27.79 60.76 27.85L60.76 31.34C60.76 31.4 60.73 31.44 60.66 31.44L60.13 31.44C60.07 31.44 60.04 31.4 60.04 31.34ZM61.77 28.32L61.77 27.85C61.77 27.78 61.8 27.75 61.87 27.75L64.51 27.75C64.58 27.75 64.61 27.78 64.61 27.85L64.61 28.32C64.61 28.39 64.58 28.42 64.51 28.42L63.54 28.42L63.54 31.34C63.54 31.4 63.51 31.44 63.45 31.44L62.91 31.44C62.84 31.44 62.81 31.4 62.81 31.34L62.81 28.42L61.87 28.42C61.8 28.42 61.77 28.39 61.77 28.32ZM65.71 31.34L65.71 27.85C65.71 27.79 65.74 27.75 65.8 27.75L67.26 27.75C67.6 27.75 67.87 27.87 68.1 28.11C68.32 28.35 68.43 28.63 68.43 28.94C68.43 29.25 68.32 29.52 68.09 29.76C67.86 29.99 67.58 30.11 67.26 30.11L66.44 30.11L66.44 31.34C66.44 31.4 66.4 31.44 66.33 31.44L65.8 31.44C65.74 31.44 65.71 31.4 65.71 31.34ZM67.12 28.38L66.44 28.38L66.44 29.49L67.12 29.49C67.28 29.49 67.42 29.43 67.53 29.33C67.63 29.23 67.68 29.09 67.68 28.94C67.68 28.78 67.63 28.65 67.53 28.55C67.42 28.44 67.28 28.38 67.12 28.38ZM73.77 27.86L72.61 29.57L73.81 31.33C73.83 31.36 73.83 31.39 73.82 31.41C73.81 31.43 73.78 31.44 73.75 31.44L73.14 31.44C73.09 31.44 73.04 31.41 73.01 31.35L72.2 30.16L71.39 31.35C71.35 31.41 71.31 31.44 71.26 31.44L70.65 31.44C70.62 31.44 70.59 31.43 70.58 31.41C70.57 31.39 70.57 31.36 70.59 31.33L71.79 29.57L70.64 27.86C70.62 27.83 70.61 27.81 70.62 27.79C70.63 27.76 70.65 27.75 70.69 27.75L71.31 27.75C71.36 27.75 71.4 27.78 71.44 27.84L72.2 28.96L72.97 27.84C73.01 27.78 73.05 27.75 73.1 27.75L73.71 27.75C73.74 27.75 73.77 27.76 73.78 27.78C73.79 27.81 73.79 27.83 73.77 27.86ZM75.01 31.34L75.01 27.86C75.01 27.79 75.05 27.75 75.11 27.75L75.66 27.75C75.72 27.75 75.75 27.79 75.75 27.86L75.75 31.34C75.75 31.4 75.72 31.44 75.66 31.44L75.11 31.44C75.05 31.44 75.01 31.4 75.01 31.34ZM77.12 31.34L77.12 27.85C77.12 27.79 77.16 27.75 77.22 27.75L78.68 27.75C79.02 27.75 79.3 27.87 79.51 28.11C79.74 28.35 79.85 28.63 79.85 28.94C79.85 29.25 79.73 29.52 79.51 29.76C79.28 29.99 79 30.11 78.67 30.11L77.85 30.11L77.85 31.34C77.85 31.4 77.82 31.44 77.75 31.44L77.22 31.44C77.16 31.44 77.12 31.4 77.12 31.34ZM78.54 28.38L77.85 28.38L77.85 29.49L78.54 29.49C78.7 29.49 78.84 29.43 78.94 29.33C79.05 29.23 79.1 29.09 79.1 28.94C79.1 28.78 79.05 28.65 78.94 28.55C78.84 28.44 78.7 28.38 78.54 28.38ZM83.14 27.9L82.03 30.72C81.81 31.28 81.45 31.57 80.95 31.57C80.87 31.57 80.82 31.54 80.82 31.48L80.82 31.01C80.82 30.99 80.83 30.97 80.85 30.94C80.87 30.92 80.89 30.91 80.92 30.91C81.06 30.91 81.17 30.88 81.24 30.81C81.31 30.74 81.37 30.63 81.42 30.49L81.52 30.24L80.55 27.9C80.51 27.8 80.54 27.75 80.64 27.75L81.17 27.75C81.23 27.75 81.26 27.78 81.29 27.84L81.85 29.5L82.39 27.84C82.41 27.78 82.45 27.75 82.52 27.75L83.05 27.75C83.15 27.75 83.17 27.8 83.14 27.9ZM84.23 31.34L84.23 27.85C84.23 27.79 84.26 27.75 84.32 27.75L85.78 27.75C86.12 27.75 86.39 27.87 86.62 28.11C86.83 28.35 86.94 28.63 86.94 28.94C86.94 29.25 86.83 29.52 86.6 29.76C86.38 29.99 86.1 30.11 85.77 30.11L84.95 30.11L84.95 31.34C84.95 31.4 84.92 31.44 84.85 31.44L84.32 31.44C84.26 31.44 84.23 31.4 84.23 31.34ZM85.64 28.38L84.95 28.38L84.95 29.49L85.64 29.49C85.8 29.49 85.94 29.43 86.04 29.33C86.15 29.23 86.2 29.09 86.2 28.94C86.2 28.78 86.15 28.65 86.04 28.55C85.94 28.44 85.8 28.38 85.64 28.38ZM87.95 31.33L87.95 27.86C87.95 27.79 87.98 27.75 88.06 27.75L90.16 27.75C90.23 27.76 90.26 27.79 90.26 27.86L90.26 28.32C90.26 28.35 90.26 28.38 90.23 28.4C90.21 28.42 90.19 28.43 90.16 28.43L88.69 28.43L88.69 31.33C88.68 31.41 88.65 31.44 88.58 31.44L88.06 31.44C88.03 31.44 88 31.43 87.98 31.41C87.96 31.39 87.95 31.36 87.95 31.33ZM91.37 31.34L91.37 27.86C91.37 27.79 91.41 27.75 91.47 27.75L92.02 27.75C92.08 27.75 92.11 27.79 92.11 27.86L92.11 31.34C92.11 31.4 92.08 31.44 92.02 31.44L91.47 31.44C91.41 31.44 91.37 31.4 91.37 31.34ZM93.49 31.34L93.49 27.86C93.49 27.79 93.52 27.75 93.58 27.75L94.13 27.75C94.19 27.75 94.23 27.79 94.23 27.86L94.23 31.34C94.23 31.4 94.19 31.44 94.13 31.44L93.58 31.44C93.52 31.44 93.49 31.4 93.49 31.34ZM93.08 26.94C93.08 26.85 93.11 26.76 93.18 26.69C93.25 26.63 93.33 26.59 93.43 26.59C93.53 26.59 93.62 26.63 93.69 26.69C93.75 26.76 93.79 26.85 93.79 26.94C93.79 27.04 93.75 27.12 93.69 27.19C93.62 27.26 93.53 27.29 93.43 27.29C93.33 27.29 93.25 27.26 93.18 27.19C93.12 27.12 93.08 27.04 93.08 26.94ZM94.1 26.94C94.1 26.84 94.14 26.76 94.2 26.69C94.27 26.62 94.35 26.58 94.45 26.58C94.55 26.58 94.64 26.62 94.71 26.69C94.78 26.76 94.81 26.84 94.81 26.94C94.81 27.04 94.78 27.12 94.71 27.18C94.64 27.25 94.55 27.29 94.45 27.29C94.35 27.29 94.27 27.25 94.2 27.18C94.14 27.12 94.1 27.04 94.1 26.94Z" fill="#2C3A61" fill-opacity="1.000000" fill-rule="nonzero"/>
	<path id="Vector" d="M49.29 34.38L49.29 33.91C49.29 33.85 49.32 33.82 49.38 33.82L52.03 33.82C52.09 33.82 52.12 33.85 52.12 33.91L52.12 34.38C52.12 34.45 52.09 34.48 52.03 34.48L51.06 34.48L51.06 37.4C51.06 37.47 51.03 37.5 50.96 37.5L50.42 37.5C50.35 37.5 50.32 37.47 50.32 37.4L50.32 34.48L49.38 34.48C49.32 34.48 49.29 34.45 49.29 34.38ZM52.76 37.4L54.18 33.91C54.21 33.85 54.25 33.82 54.31 33.82L54.73 33.82C54.79 33.82 54.83 33.85 54.85 33.91L56.28 37.4C56.29 37.43 56.29 37.45 56.28 37.47C56.26 37.49 56.24 37.5 56.21 37.5L55.66 37.5C55.6 37.5 55.55 37.47 55.53 37.41L55.29 36.82L53.75 36.82L53.51 37.41C53.48 37.47 53.44 37.5 53.38 37.5L52.83 37.5C52.76 37.5 52.73 37.47 52.76 37.4ZM54.52 34.77L53.98 36.17L55.05 36.17L54.52 34.77ZM58.96 37.4L58.96 33.92C58.96 33.85 58.99 33.82 59.05 33.82L60.51 33.82C60.85 33.82 61.12 33.94 61.35 34.17C61.57 34.41 61.68 34.69 61.68 35C61.68 35.32 61.57 35.59 61.34 35.82C61.11 36.06 60.83 36.17 60.51 36.17L59.69 36.17L59.69 37.4C59.69 37.47 59.65 37.5 59.58 37.5L59.05 37.5C58.99 37.5 58.96 37.47 58.96 37.4ZM60.37 34.45L59.69 34.45L59.69 35.55L60.37 35.55C60.53 35.55 60.67 35.5 60.78 35.39C60.88 35.29 60.93 35.16 60.93 35C60.93 34.85 60.88 34.72 60.78 34.61C60.67 34.5 60.53 34.45 60.37 34.45ZM62.68 37.4L62.68 33.92C62.68 33.85 62.71 33.82 62.78 33.82L65.23 33.82C65.3 33.82 65.33 33.85 65.33 33.92L65.33 34.4C65.33 34.47 65.3 34.5 65.23 34.5L63.41 34.5L63.41 35.25L64.8 35.25C64.87 35.25 64.91 35.28 64.91 35.35L64.91 35.82C64.91 35.88 64.87 35.92 64.8 35.92L63.41 35.92L63.41 36.83L65.28 36.83C65.35 36.83 65.39 36.86 65.39 36.92L65.39 37.4C65.39 37.47 65.35 37.5 65.28 37.5L62.78 37.5C62.71 37.5 62.68 37.47 62.68 37.4ZM66.01 37.4L67.43 33.91C67.46 33.85 67.5 33.82 67.55 33.82L67.98 33.82C68.04 33.82 68.08 33.85 68.1 33.91L69.52 37.4C69.53 37.43 69.53 37.45 69.52 37.47C69.51 37.49 69.48 37.5 69.45 37.5L68.9 37.5C68.84 37.5 68.8 37.47 68.78 37.41L68.53 36.82L66.99 36.82L66.75 37.41C66.73 37.47 66.69 37.5 66.63 37.5L66.08 37.5C66 37.5 65.98 37.47 66.01 37.4ZM67.76 34.77L67.23 36.17L68.29 36.17L67.76 34.77ZM70.73 33.82L72.99 33.82C73.05 33.82 73.08 33.85 73.08 33.92L73.08 34.34C73.08 34.41 73.05 34.44 72.98 34.44L71.33 34.44L71.33 35.18L72.26 35.18C72.59 35.18 72.86 35.3 73.08 35.53C73.3 35.77 73.41 36.04 73.41 36.34C73.41 36.66 73.29 36.93 73.07 37.16C72.85 37.39 72.58 37.5 72.25 37.5L70.73 37.5C70.66 37.5 70.63 37.47 70.63 37.41L70.63 33.91C70.63 33.85 70.66 33.82 70.73 33.82ZM72.69 36.35C72.69 36.2 72.64 36.07 72.53 35.95C72.43 35.84 72.3 35.78 72.14 35.78L71.33 35.78L71.33 36.9L72.14 36.9C72.3 36.9 72.43 36.84 72.54 36.73C72.64 36.62 72.69 36.5 72.69 36.35ZM74.6 37.4L74.6 33.92C74.6 33.85 74.63 33.82 74.7 33.82L75.24 33.82C75.3 33.82 75.33 33.85 75.33 33.92L75.33 37.4C75.33 37.47 75.3 37.5 75.24 37.5L74.7 37.5C74.63 37.5 74.6 37.47 74.6 37.4ZM76.85 36.48L76.85 33.98C76.85 33.87 76.9 33.82 77 33.82L79.62 33.82C79.69 33.82 79.73 33.85 79.73 33.91L79.73 37.4C79.73 37.47 79.71 37.5 79.65 37.5L79.09 37.5C79.03 37.5 79 37.47 79 37.4L79 34.49L77.59 34.49L77.59 36.48C77.59 36.76 77.49 37 77.28 37.22C77.07 37.43 76.81 37.54 76.48 37.54C76.41 37.54 76.37 37.5 76.37 37.42L76.37 36.92C76.37 36.88 76.41 36.85 76.47 36.85C76.58 36.85 76.67 36.81 76.74 36.74C76.82 36.67 76.85 36.58 76.85 36.48ZM80.99 37.4L80.99 33.92C80.99 33.85 81.03 33.82 81.09 33.82L81.64 33.82C81.7 33.82 81.73 33.85 81.73 33.92L81.73 37.4C81.73 37.47 81.7 37.5 81.64 37.5L81.09 37.5C81.03 37.5 80.99 37.47 80.99 37.4ZM82.8 34.38L82.8 33.91C82.8 33.85 82.83 33.82 82.9 33.82L85.54 33.82C85.61 33.82 85.64 33.85 85.64 33.91L85.64 34.38C85.64 34.45 85.61 34.48 85.54 34.48L84.57 34.48L84.57 37.4C84.57 37.47 84.54 37.5 84.48 37.5L83.94 37.5C83.87 37.5 83.84 37.47 83.84 37.4L83.84 34.48L82.9 34.48C82.83 34.48 82.8 34.45 82.8 34.38ZM86.28 37.4L87.7 33.91C87.73 33.85 87.77 33.82 87.82 33.82L88.25 33.82C88.31 33.82 88.35 33.85 88.37 33.91L89.79 37.4C89.8 37.43 89.8 37.45 89.79 37.47C89.78 37.49 89.75 37.5 89.72 37.5L89.17 37.5C89.11 37.5 89.07 37.47 89.05 37.41L88.8 36.82L87.26 36.82L87.02 37.41C87 37.47 86.96 37.5 86.9 37.5L86.34 37.5C86.27 37.5 86.25 37.47 86.28 37.4ZM88.03 34.77L87.5 36.17L88.56 36.17L88.03 34.77ZM94.14 36.99L94.14 38.09C94.14 38.17 94.1 38.21 94.03 38.21L93.55 38.21C93.48 38.21 93.44 38.17 93.44 38.09L93.44 37.5L90.95 37.5C90.92 37.5 90.9 37.49 90.88 37.47C90.85 37.45 90.85 37.42 90.85 37.39L90.85 33.92C90.85 33.89 90.85 33.87 90.88 33.85C90.9 33.83 90.92 33.82 90.95 33.82L91.44 33.82C91.46 33.82 91.49 33.83 91.51 33.85C91.54 33.87 91.55 33.89 91.55 33.92L91.55 36.85L93.04 36.85L93.04 33.93C93.04 33.85 93.08 33.82 93.15 33.82L93.62 33.82C93.66 33.82 93.68 33.83 93.71 33.85C93.73 33.87 93.74 33.89 93.74 33.92L93.74 36.87L94.01 36.87C94.05 36.87 94.07 36.88 94.1 36.9C94.13 36.93 94.14 36.96 94.14 36.99ZM95.14 37.4L95.14 33.92C95.14 33.85 95.17 33.82 95.25 33.82L95.79 33.82C95.85 33.82 95.88 33.85 95.88 33.92L95.88 37.4C95.88 37.47 95.85 37.5 95.79 37.5L95.25 37.5C95.17 37.5 95.14 37.47 95.14 37.4ZM97.26 37.4L97.26 33.92C97.26 33.85 97.29 33.82 97.35 33.82L97.9 33.82C97.96 33.82 98 33.85 98 33.92L98 37.4C98 37.47 97.96 37.5 97.9 37.5L97.35 37.5C97.29 37.5 97.26 37.47 97.26 37.4ZM96.85 33.01C96.85 32.91 96.88 32.83 96.95 32.76C97.02 32.69 97.1 32.66 97.2 32.66C97.3 32.66 97.39 32.69 97.46 32.76C97.53 32.83 97.56 32.91 97.56 33.01C97.56 33.11 97.52 33.19 97.46 33.25C97.39 33.32 97.3 33.36 97.2 33.36C97.11 33.36 97.02 33.32 96.95 33.25C96.89 33.19 96.85 33.11 96.85 33.01ZM97.87 33C97.87 32.91 97.91 32.82 97.97 32.75C98.04 32.68 98.12 32.65 98.22 32.65C98.32 32.65 98.41 32.68 98.48 32.75C98.55 32.82 98.58 32.91 98.58 33C98.58 33.1 98.55 33.18 98.48 33.25C98.41 33.32 98.32 33.35 98.22 33.35C98.12 33.35 98.04 33.32 97.97 33.25C97.91 33.18 97.87 33.1 97.87 33Z" fill="#2C3A61" fill-opacity="1.000000" fill-rule="nonzero"/>
	<path id="Vector" d="M45.3 18.88C45.3 18.88 45.3 18.88 45.3 18.88C45.06 18.76 44.81 18.68 44.55 18.65C44.41 18.08 43.99 17.61 43.41 17.42C42.85 17.24 42.3 17.23 41.79 17.4C43.56 14.3 43.92 10.87 42.76 7.9C41.04 3.5 37.07 0.42 32.64 0.03C29.19 -0.27 25.76 1.22 23.15 4.13C19.6 0.24 15.01 -0.98 10.51 0.8C5.71 2.69 2.44 7.71 2.9 12.47C3.07 14.2 3.61 15.85 4.5 17.4C4.06 17.25 3.58 17.23 3.1 17.34C2.46 17.49 2.11 17.87 1.93 18.16C1.84 18.3 1.78 18.46 1.74 18.62C1.72 18.62 1.71 18.63 1.69 18.63C1.05 18.74 0.5 19.14 0.2 19.71C-0.01 20.08 -0.06 20.51 0.05 20.92C0.2 21.46 0.51 21.94 0.96 22.35C2.01 23.3 3.05 24.23 4.03 25.1C4.8 25.77 5.69 26.18 6.47 26.53L6.58 26.58C6.76 26.66 6.94 26.75 7.12 26.83C8.46 27.49 9.6 28.44 10.81 29.45L11.12 29.72C11.47 30 11.87 30.19 12.32 30.27C15.18 30.81 17.55 32.51 18.66 34.82C19.26 36.06 19.82 37.32 20.34 38.58C20.36 38.63 20.38 38.67 20.41 38.71L20.48 38.84C20.63 39.11 20.89 39.31 21.19 39.4L21.37 39.45C21.37 39.45 21.38 39.45 21.39 39.45C21.51 39.49 21.64 39.5 21.77 39.5C22.39 39.5 22.92 39.14 23.14 38.6C23.41 39.26 23.98 39.54 24.44 39.57C24.47 39.57 24.49 39.57 24.53 39.57C25.14 39.57 25.66 39.21 25.93 38.61C26.58 37.15 27.17 35.83 27.73 34.58C28.77 32.3 31.48 30.81 33.7 30.34C34.21 30.23 34.67 30.03 35.06 29.75C35.53 29.41 35.99 29.04 36.39 28.72C37.09 28.16 37.8 27.58 38.51 27.19C38.85 27.01 39.23 26.83 39.66 26.63C40.67 26.15 41.72 25.66 42.61 24.81C43.46 24.01 44.33 23.23 45.22 22.48C45.67 22.09 46 21.62 46.19 21.08C46.51 20.22 46.12 19.28 45.3 18.88Z" fill="#FEFEFE" fill-opacity="1.000000" fill-rule="nonzero"/>
	<path id="Vector" d="M11.07 19.33C11.47 19.33 11.89 19.46 12.32 19.71C12.81 20 13.32 20.4 13.85 20.81C14.81 21.55 15.88 22.39 17.18 22.89C19.75 23.9 21.99 26.78 23.15 29.32C24.58 26.21 26.83 23.84 29.37 22.79C30.69 22.24 31.79 21.39 32.85 20.56C33.11 20.35 33.38 20.14 33.65 19.94C34.69 19.16 35.7 19.14 36.64 19.9C39.86 16.11 40.74 12.45 39.25 9.01C37.54 5.06 32.86 1.91 28.02 3.49C26.43 4 24.89 5.1 23.43 6.76C23.3 6.91 23.06 6.93 22.91 6.8C21.1 4.87 18.83 2.94 15.29 3.09C10.58 3.3 6.31 7.71 6.33 12.35C6.34 14.71 7.49 17.33 9.66 19.91C10.1 19.53 10.57 19.33 11.07 19.33ZM23.15 29.71L23.18 29.72L23.15 29.7L23.15 29.71ZM23.15 29.96C23.09 29.96 22.99 29.94 22.92 29.8C21.85 27.26 19.61 24.26 17.03 23.25C15.69 22.73 14.58 21.87 13.61 21.12C13.08 20.71 12.58 20.32 12.12 20.05C11.29 19.56 10.55 19.62 9.88 20.25L9.83 20.27C9.69 20.37 9.51 20.34 9.4 20.22C7.11 17.5 5.95 14.86 5.94 12.35C5.91 7.43 10.28 2.92 15.27 2.7C15.41 2.7 15.55 2.7 15.68 2.7C19.13 2.7 21.4 4.61 23.17 6.51C24.64 4.8 26.24 3.66 27.9 3.12C32.97 1.47 37.83 4.75 39.61 8.86C41.17 12.47 40.25 16.29 36.88 20.22C36.77 20.34 36.59 20.36 36.46 20.25C35.64 19.56 34.8 19.56 33.89 20.25C33.62 20.45 33.35 20.66 33.09 20.86C32.01 21.71 30.89 22.58 29.52 23.15C26.99 24.19 24.75 26.62 23.37 29.8C23.31 29.94 23.2 29.96 23.15 29.96Z" fill="#FEFEFE" fill-opacity="1.000000" fill-rule="nonzero"/>
	<path id="Vector" d="M5.94 21.32C5.89 21.28 5.84 21.24 5.79 21.2L5.56 21.03C4.92 20.54 4.32 20.07 3.99 19.45C4.03 19.49 4.09 19.53 4.15 19.59L4.52 19.96C5 20.43 5.45 20.89 5.94 21.32ZM7.85 20.76C7.44 20.42 7.1 19.78 6.82 19.16C7.23 19.57 7.65 20.33 7.84 20.68L7.9 20.8C7.89 20.78 7.87 20.77 7.85 20.76ZM5.45 23.54C4.34 22.55 3.34 21.66 2.4 20.81C2.37 20.78 2.33 20.75 2.31 20.72C2.72 20.84 3.49 21.29 4.96 22.6L5.18 22.79C6.85 24.24 9.57 24.42 11.55 24.56L11.61 24.56C11.77 24.57 11.91 24.62 12.05 24.73L13.6 25.92C13.9 26.15 14.28 26.16 14.55 25.94C14.82 25.71 14.88 25.35 14.7 25C14.23 24.11 13.43 23.44 12.66 22.79C11.94 22.18 11.26 21.6 10.94 20.92C11.21 20.87 11.77 21.15 12.31 21.62C13.64 22.79 15.14 23.74 16.78 24.43C18.55 25.18 19.88 26.94 20.85 28.38C22.53 30.91 22.33 33.61 21.65 36.23C21.31 35.46 20.95 34.68 20.58 33.92C19.18 31.01 16.24 28.88 12.72 28.22C12.63 28.2 12.56 28.17 12.49 28.11L12.17 27.84C10.92 26.8 9.62 25.72 8.07 24.96C7.84 24.85 7.6 24.74 7.37 24.64L7.21 24.99L7.2 24.99L7.35 24.63C6.67 24.32 5.97 24 5.45 23.54ZM22.03 27.61C20.96 26 19.46 24.04 17.33 23.14C15.84 22.51 14.47 21.65 13.25 20.58C12.03 19.5 10.85 19.22 10.03 19.82C9.72 20.04 9.53 20.34 9.49 20.67C9.39 20.52 9.28 20.37 9.2 20.21L9.09 20.01C8.64 19.19 7.9 17.82 6.78 17.54C6.32 17.43 5.85 17.51 5.43 17.77C5.17 17.94 5.04 18.22 5.05 18.51C4.53 18.04 3.91 17.87 3.26 18.02C2.85 18.11 2.64 18.34 2.53 18.51C2.43 18.68 2.34 18.95 2.42 19.32C2.31 19.3 2.2 19.28 2.09 19.28C2 19.28 1.91 19.29 1.82 19.31C1.38 19.38 1.03 19.65 0.82 20.04C0.69 20.25 0.67 20.5 0.73 20.74C0.85 21.15 1.08 21.52 1.44 21.84C2.49 22.8 3.53 23.72 4.51 24.58C5.19 25.19 6.03 25.57 6.77 25.91L6.87 25.95C7.06 26.04 7.25 26.13 7.44 26.22C8.85 26.91 10.02 27.89 11.26 28.93L11.57 29.18C11.83 29.4 12.12 29.53 12.45 29.59C15.53 30.17 18.09 32.01 19.3 34.52C19.9 35.77 20.47 37.05 20.99 38.32C21 38.34 21.01 38.36 21.02 38.38L21.09 38.5C21.16 38.61 21.26 38.7 21.39 38.74L21.57 38.79C21.64 38.81 21.7 38.81 21.77 38.81C22.12 38.81 22.42 38.59 22.52 38.27C23.6 34.97 24.37 31.12 22.03 27.61Z" fill="#FEFEFE" fill-opacity="1.000000" fill-rule="nonzero"/>
	<path id="Vector" d="M34.66 21.82L34.25 22.17C33.28 23 32.09 24.02 31.57 25C31.41 25.27 31.43 25.57 31.6 25.82C31.75 26 32.03 26.17 32.42 26.08L32.5 26.06C32.51 26.06 32.52 26.05 32.53 26.05C32.65 26.01 32.75 25.95 32.84 25.86C32.85 25.85 32.85 25.85 32.86 25.84C33.68 24.99 34.42 24.59 35.33 24.51L35.44 24.5C36.84 24.37 38.43 24.23 39.78 23.64C40.34 23.4 40.98 22.87 41.65 22.31L41.67 22.29C42.37 21.72 43.35 20.9 43.98 20.74C43.94 20.8 43.89 20.85 43.83 20.89C42.92 21.66 42.02 22.48 41.15 23.3C40.5 23.91 39.6 24.33 38.74 24.74C38.28 24.95 37.88 25.15 37.48 25.37C36.62 25.84 35.83 26.47 35.06 27.09C34.65 27.42 34.23 27.75 33.81 28.06C33.66 28.17 33.47 28.25 33.26 28.3C30.51 28.87 27.14 30.78 25.8 33.73C25.43 34.54 25.05 35.39 24.67 36.24C24.26 34.63 24.11 33.3 24.17 32.02C24.3 29.3 26.98 25.53 29.57 24.42C31.12 23.75 32.56 22.86 33.83 21.76C34.38 21.29 34.71 21.06 35.35 20.87C35.35 20.87 35.35 20.87 35.35 20.87C35.36 20.87 35.36 20.87 35.36 20.87C35.38 20.94 35.25 21.3 34.66 21.82ZM42.2 19.56C42.25 19.5 42.3 19.47 42.34 19.44C42.05 20.03 41.45 20.48 40.83 20.94L40.8 20.97C40.7 21.04 40.6 21.12 40.5 21.19C41.08 20.69 41.64 20.16 42.2 19.56ZM38.35 20.82C38.62 20.33 39.03 19.58 39.46 19.19C39.22 19.74 38.94 20.32 38.62 20.59C38.54 20.66 38.46 20.74 38.35 20.82ZM44.99 19.5C44.63 19.32 44.25 19.28 43.87 19.34C43.87 19.32 43.88 19.3 43.88 19.27C43.99 18.75 43.68 18.24 43.18 18.07C42.49 17.84 41.8 18 41.26 18.51C41.27 18.4 41.25 18.29 41.21 18.18C41.14 17.97 40.98 17.79 40.78 17.7C40.76 17.69 40.76 17.69 40.75 17.68L40.71 17.67C38.85 16.93 37.64 19.16 37.06 20.23C36.99 20.36 36.92 20.49 36.87 20.59C36.84 20.64 36.8 20.69 36.77 20.74C36.74 20.43 36.62 20.2 36.51 20.06C36.14 19.53 35.57 19.34 34.94 19.53C34.06 19.79 33.57 20.13 32.9 20.71C31.73 21.71 30.42 22.53 29 23.13C25.89 24.47 22.91 28.68 22.75 31.95C22.66 33.79 22.98 35.74 23.76 38.24C23.92 38.78 24.32 38.86 24.49 38.88C24.5 38.88 24.51 38.88 24.52 38.88L24.53 38.88C24.69 38.88 25.07 38.82 25.29 38.33C25.94 36.87 26.53 35.55 27.1 34.3C28.23 31.8 31.16 30.17 33.55 29.67C33.97 29.58 34.34 29.42 34.65 29.19C35.1 28.87 35.55 28.5 35.96 28.18C36.67 27.6 37.41 27 38.17 26.59C38.53 26.39 38.92 26.21 39.36 26C40.32 25.55 41.32 25.08 42.13 24.31C42.98 23.51 43.87 22.72 44.76 21.95C45.12 21.65 45.38 21.27 45.54 20.84C45.73 20.32 45.5 19.74 44.99 19.5Z" fill="#FEFEFE" fill-opacity="1.000000" fill-rule="nonzero"/>
	<path id="Vector" d="M23.35 4.96C25.62 2.24 28.94 0.41 32.57 0.72C36.91 1.1 40.55 4.18 42.1 8.15C43.34 11.31 42.69 14.75 40.82 17.65C40.8 17.68 40.76 17.69 40.73 17.67C40.73 17.66 40.72 17.66 40.71 17.65C40.69 17.62 40.69 17.58 40.71 17.55C42.66 14.3 43.19 10.69 41.4 7.24C37.56 -0.18 28.69 -1.35 23.23 5.22C23.2 5.25 23.15 5.25 23.11 5.23C23.11 5.22 23.1 5.22 23.1 5.22C19.67 1.24 14.69 -0.51 9.79 2.13C6.53 3.88 4.01 7.44 3.82 11.15C3.69 13.56 4.47 15.47 5.6 17.59C5.62 17.63 5.62 17.66 5.59 17.67C5.56 17.7 5.52 17.7 5.49 17.67C5.49 17.67 5.49 17.66 5.49 17.66C4.41 16.02 3.78 14.26 3.6 12.41C3.15 7.71 6.47 3.14 10.77 1.44C15.46 -0.41 19.83 1.32 22.96 4.97C23.05 5.07 23.21 5.09 23.32 5C23.33 4.99 23.34 4.97 23.35 4.96Z" fill="#FEFEFE" fill-opacity="1.000000" fill-rule="nonzero"/>
	<path id="Vector" d="M33.71 1.74C37.5 2.67 40.62 5.92 41.6 9.62C42.26 12.13 41.62 14.91 40.29 17.21C40.26 17.26 40.2 17.46 40.1 17.47C40.03 17.47 40.01 17.44 40.04 17.37C42.07 13.47 42.33 10.07 39.74 6.3C35.65 0.35 27.84 0.05 23.26 5.76C23.23 5.8 23.17 5.8 23.14 5.77C23.14 5.77 23.13 5.77 23.13 5.76C22.2 4.81 21.62 4.25 21.39 4.06C15.52 -0.71 8.04 2.02 5.35 8.54C4.1 11.56 4.67 14.64 6.27 17.37C6.3 17.41 6.3 17.44 6.28 17.46C6.27 17.49 6.25 17.49 6.22 17.48C6.21 17.48 6.21 17.47 6.21 17.47C4.18 14.42 3.88 10.81 5.5 7.54C7.46 3.57 11.96 0.79 16.48 1.58C19.05 2.02 21.36 3.57 23 5.58C23.07 5.66 23.18 5.67 23.26 5.6C23.27 5.6 23.28 5.59 23.29 5.58C25.96 2.48 29.55 0.71 33.71 1.74Z" fill="#28B4AD" fill-opacity="1.000000" fill-rule="nonzero"/>
	<path id="Vector" d="M23.34 6.34L23.3 6.42C23.27 6.5 23.18 6.53 23.11 6.5C23.08 6.49 23.07 6.47 23.05 6.45C21.64 4.74 19.94 3.59 17.95 3.02C12.84 1.54 7.69 5.11 6.25 9.94C5.42 12.73 6.21 15.67 7.83 18.05C7.87 18.1 7.85 18.11 7.8 18.08C6.72 17.5 6.46 16.7 5.95 15.43C2.6 7.1 12.85 -1.54 20.5 3.86C21.43 4.52 22.26 5.27 22.99 6.11C23.07 6.21 23.21 6.22 23.3 6.14C23.31 6.13 23.32 6.12 23.33 6.11C27.03 1.85 32.55 0.62 37.17 4.45C41.16 7.75 42.1 12.64 39.54 17.2C39.29 17.64 38.84 17.82 38.49 18.2C38.44 18.25 38.42 18.25 38.42 18.18C38.42 18.11 38.44 18.06 38.45 18.04C39.35 16.69 39.94 15.38 40.22 14.09C41.55 7.87 35.31 1.4 28.85 2.9C27.25 3.27 25.83 4.03 24.57 5.18C24.19 5.53 23.82 5.87 23.43 6.21C23.39 6.25 23.36 6.29 23.34 6.34Z" fill="#28B4AD" fill-opacity="1.000000" fill-rule="nonzero"/>
	<path id="Vector" d="M11.54 23.38C11.78 23.53 11.76 23.58 11.48 23.54C10.12 23.33 8.45 22.15 7.4 21.3C6.62 20.66 6.16 19.41 5.77 18.51C5.75 18.45 5.77 18.4 5.82 18.36C7.08 17.56 8.13 19.75 8.57 20.54C9.26 21.77 10.36 22.64 11.54 23.38Z" fill="#F9E911" fill-opacity="1.000000" fill-rule="nonzero"/>
	<path id="Vector" d="M40.46 18.33C40.53 18.35 40.57 18.44 40.54 18.52C40.54 18.52 40.54 18.52 40.54 18.53C40.16 19.3 39.75 20.54 39.09 21.12C38.13 21.96 36.04 23.49 34.69 23.53C34.62 23.54 34.61 23.52 34.67 23.47C35.62 22.71 36.81 22.13 37.49 20.93C38.05 19.94 39.01 17.75 40.46 18.33Z" fill="#369FD8" fill-opacity="1.000000" fill-rule="nonzero"/>
	<path id="Vector" d="M9.82 23.22C10.01 23.34 9.99 23.4 9.76 23.38C8.14 23.28 6.67 22.78 5.35 21.75C4.44 21.05 3.43 20.36 3.12 19.19C3.05 18.92 3.15 18.76 3.42 18.7C3.89 18.59 4.3 18.74 4.66 19.09C5.5 19.93 6.29 20.77 7.26 21.47C8.08 22.06 8.94 22.64 9.82 23.22Z" fill="#F9E911" fill-opacity="1.000000" fill-rule="nonzero"/>
	<path id="Vector" d="M42.95 18.74C43.12 18.79 43.22 18.96 43.19 19.14C42.93 20.38 41.82 21.06 40.89 21.78C39.56 22.81 38.12 23.27 36.47 23.35C36.4 23.35 36.39 23.33 36.45 23.29C36.99 22.89 37.53 22.5 38.09 22.13C39.51 21.18 40.59 20.25 41.68 19.08C42.05 18.69 42.47 18.58 42.95 18.74Z" fill="#369FD8" fill-opacity="1.000000" fill-rule="nonzero"/>
	<path id="Vector" d="M36.77 20.41C36.95 20.07 37.44 19.4 37.73 19.14C37.81 19.06 37.82 19.07 37.76 19.16L36.87 20.66C36.81 20.75 36.78 20.74 36.76 20.63L36.75 20.52C36.75 20.48 36.75 20.44 36.77 20.41Z" fill="#70C4BE" fill-opacity="1.000000" fill-rule="nonzero"/>
	<path id="Vector" d="M9.55 20.66L9.53 20.72C9.51 20.76 9.49 20.76 9.47 20.72L8.75 19.5C8.67 19.36 8.68 19.35 8.79 19.47C8.83 19.52 9.6 20.36 9.59 20.5C9.59 20.55 9.58 20.6 9.55 20.66Z" fill="#70C4BE" fill-opacity="1.000000" fill-rule="nonzero"/>
	<path id="Vector" d="M14.07 25.33C13.19 23.68 10.89 22.75 10.24 21.07C10.13 20.79 10.2 20.57 10.44 20.39C11.17 19.87 12.25 20.63 12.78 21.1C14.06 22.23 15.48 23.12 17.05 23.79C18.91 24.57 20.29 26.28 21.44 28C23.57 31.18 22.94 34.68 21.85 38.06C21.83 38.1 21.79 38.12 21.75 38.11L21.69 38.09C21.67 38.09 21.66 38.08 21.65 38.06C21.12 36.76 20.55 35.48 19.94 34.22C18.56 31.35 15.7 29.49 12.58 28.91C12.37 28.87 12.19 28.78 12.03 28.65C10.67 27.52 9.35 26.38 7.75 25.59C6.81 25.13 5.76 24.76 4.98 24.06C3.95 23.16 2.93 22.24 1.92 21.33C1.66 21.09 1.5 20.84 1.42 20.56C1.4 20.5 1.41 20.43 1.44 20.37C2.18 19 5 21.71 5.65 22.27C7.16 23.58 9.75 23.74 11.66 23.86C11.96 23.88 12.24 23.99 12.48 24.17L14.03 25.37C14.1 25.41 14.11 25.41 14.07 25.33Z" fill="#F9E911" fill-opacity="1.000000" fill-rule="nonzero"/>
	<path id="Vector" d="M32.24 25.4C32.26 25.4 32.28 25.39 32.3 25.39C32.32 25.38 32.33 25.37 32.35 25.36C33.16 24.52 34.05 23.92 35.26 23.81C36.64 23.69 38.22 23.55 39.49 23C40.85 22.41 43.24 19.42 44.67 20.12C44.85 20.21 44.94 20.41 44.87 20.6C44.75 20.93 44.56 21.2 44.3 21.42C43.39 22.19 42.5 22.99 41.64 23.81C40.58 24.81 39.1 25.28 37.83 25.98C36.57 26.67 35.44 27.75 34.23 28.63C34 28.8 33.72 28.91 33.41 28.98C30.7 29.55 27.64 31.4 26.45 34.01C25.82 35.4 25.22 36.74 24.64 38.05C24.56 38.22 24.5 38.22 24.44 38.04C23.83 36.09 23.36 34.04 23.46 31.99C23.61 28.95 26.46 24.99 29.29 23.78C30.78 23.14 32.14 22.29 33.37 21.23C34 20.69 34.41 20.42 35.14 20.2C35.47 20.1 35.74 20.19 35.94 20.46C36.37 21.07 35.65 21.89 35.12 22.34C34.16 23.19 32.73 24.33 32.19 25.34C32.16 25.39 32.17 25.42 32.24 25.4Z" fill="#369FD8" fill-opacity="1.000000" fill-rule="nonzero"/>
	<path id="Vector" d="M31.38 12.82C31.38 12.29 30.95 11.87 30.41 11.87C29.88 11.87 29.44 12.29 29.44 12.82C29.44 13.35 29.88 13.78 30.41 13.78C30.95 13.78 31.38 13.35 31.38 12.82ZM16.85 12.82C16.85 12.3 16.42 11.87 15.89 11.87C15.35 11.87 14.92 12.3 14.92 12.82C14.92 13.35 15.35 13.78 15.89 13.78C16.42 13.78 16.85 13.35 16.85 12.82ZM28.39 14.76C28.27 12.69 27.82 10.82 25.62 10.06C25.56 10.04 25.49 10.04 25.43 10.06C24.48 10.37 23.77 10.96 23.3 11.84C23.26 11.91 23.22 11.91 23.18 11.84C22.56 10.68 21.87 9.71 20.45 9.85C17.96 10.08 17.62 12.9 17.76 14.78C17.77 14.92 17.71 14.95 17.59 14.88L16.27 14.08C16.05 13.94 15.82 13.93 15.59 14.05C14.29 14.7 13.96 16.03 14.04 17.36C14.05 17.45 14.12 17.51 14.21 17.5C14.22 17.5 14.22 17.5 14.23 17.5C14.46 17.46 14.54 17.31 14.48 17.06C14.38 16.66 14.49 16.18 14.82 15.64C14.85 15.58 14.87 15.58 14.87 15.65C14.95 16.44 14.84 17.23 14.91 17.98C15.01 18.99 15.05 19.91 15.03 20.77C15.03 21.04 15.12 21.22 15.32 21.31C15.38 21.34 15.45 21.33 15.5 21.29C15.91 20.98 15.76 19.41 15.86 18.55C15.87 18.47 15.9 18.45 15.96 18.51C16.23 18.75 15.62 21.38 16.43 21.33C16.61 21.32 16.75 21.18 16.75 21L16.84 15.4C16.84 15.35 16.88 15.31 16.93 15.31C16.94 15.31 16.94 15.31 16.95 15.32C17.36 15.42 17.78 15.44 18.21 15.37C18.47 15.32 18.59 15.17 18.58 14.9C18.57 14.64 18.68 12.2 18.97 12.21C19.08 12.22 19.17 12.34 19.17 12.49L19.3 21.02C19.31 21.25 19.42 21.41 19.63 21.5C20.17 21.75 20.38 21.25 20.39 20.8C20.44 19.46 20.47 18.11 20.5 16.75C20.5 16.71 20.53 16.67 20.58 16.67C20.59 16.67 20.6 16.67 20.6 16.67C20.72 16.71 20.82 20.74 20.83 21.18C20.85 21.51 21.02 21.65 21.35 21.58C21.72 21.5 21.85 21.27 21.87 20.9C21.99 18.04 22.04 15.17 22.03 12.29C22.03 12.23 22.06 12.21 22.12 12.25C22.72 12.63 22.65 14.84 22.65 15.25C22.65 15.32 22.71 15.38 22.79 15.38L22.8 15.38L23.08 15.38C23.37 15.37 23.5 15.22 23.47 14.94C23.41 14.28 23.39 12.98 23.95 12.55C24.01 12.5 24.04 12.52 24.05 12.58C24.23 13.85 22.84 16.66 23.34 17.44C23.37 17.49 23.43 17.53 23.5 17.53L24.03 17.55C24.1 17.55 24.16 17.61 24.16 17.68L24.25 21.02C24.25 21.24 24.35 21.4 24.55 21.5C24.79 21.62 25 21.58 25.17 21.37C25.26 21.27 25.32 21.14 25.32 21L25.41 17.59C25.41 17.56 25.44 17.53 25.48 17.53C25.5 17.53 25.51 17.53 25.52 17.54C25.73 17.66 25.74 20.73 25.77 21.18C25.79 21.51 25.96 21.64 26.28 21.57C26.62 21.5 26.79 21.3 26.8 20.95C26.83 19.86 26.87 18.76 26.92 17.64C26.92 17.59 26.96 17.56 27 17.56C27.01 17.56 27.01 17.56 27.01 17.56C28.63 17.93 27.32 14.78 27.11 14.13C26.96 13.66 26.92 13.14 26.99 12.58C27 12.55 27.03 12.53 27.07 12.53C27.07 12.53 27.08 12.54 27.09 12.54C27.64 12.92 27.67 14.46 27.64 15.06C27.62 15.32 27.75 15.44 28.01 15.43L29.38 15.35C29.42 15.34 29.46 15.38 29.46 15.41C29.46 15.42 29.46 15.42 29.46 15.42C29.47 15.78 29.5 16.12 29.39 16.47C29.26 16.88 28.4 18.82 29.41 18.7C29.46 18.69 29.5 18.73 29.51 18.77C29.51 18.77 29.51 18.78 29.51 18.78L29.57 21.06C29.58 21.33 29.71 21.42 29.97 21.34C30.42 21.19 30.31 19.2 30.32 18.75C30.32 18.62 30.37 18.59 30.48 18.66C30.74 18.85 30.18 21.32 30.93 21.34C31.1 21.35 31.25 21.21 31.26 21.04C31.26 21.04 31.26 21.04 31.26 21.04L31.31 18.78C31.31 18.72 31.36 18.66 31.42 18.66L31.71 18.66C31.78 18.66 31.84 18.63 31.87 18.58C32.25 18 31.05 16.31 31.39 15.67C31.41 15.64 31.45 15.62 31.49 15.64C31.5 15.65 31.5 15.65 31.51 15.66C31.79 15.97 31.81 16.89 31.83 17.3C31.83 17.36 31.87 17.42 31.94 17.45L32 17.48C32.1 17.53 32.21 17.49 32.26 17.39C32.27 17.37 32.28 17.34 32.28 17.31C32.29 15.98 32.07 14.93 30.9 14.15C30.63 13.97 30.35 13.94 30.06 14.07C29.55 14.29 29.14 14.82 28.5 14.86C28.44 14.86 28.39 14.82 28.39 14.76C28.39 14.76 28.39 14.76 28.39 14.76ZM27 8.32C27 7.51 26.34 6.86 25.53 6.86C24.71 6.86 24.06 7.51 24.06 8.32C24.06 9.12 24.71 9.77 25.53 9.77C26.34 9.77 27 9.12 27 8.32ZM22.07 8.13C22.07 7.33 21.41 6.68 20.6 6.68C19.79 6.68 19.13 7.33 19.13 8.13C19.13 8.93 19.79 9.58 20.6 9.58C21.41 9.58 22.07 8.93 22.07 8.13ZM29.45 22.97C26.53 24.17 24.4 26.91 23.18 29.72C23.16 29.78 23.14 29.78 23.11 29.72C22.03 27.18 19.78 24.11 17.1 23.07C15.05 22.27 13.55 20.67 12.21 19.88C11.31 19.35 10.48 19.42 9.74 20.1C9.69 20.15 9.6 20.15 9.56 20.1C9.55 20.09 9.55 20.09 9.55 20.09C7.73 17.94 6.15 15.22 6.13 12.35C6.11 7.56 10.44 3.11 15.28 2.9C18.58 2.76 20.86 4.33 23.02 6.64C23.08 6.71 23.19 6.71 23.26 6.65C23.27 6.64 23.27 6.64 23.28 6.63C24.53 5.22 26.1 3.91 27.96 3.3C32.71 1.76 37.57 4.64 39.43 8.94C41.23 13.09 39.46 16.92 36.73 20.09C36.69 20.13 36.63 20.14 36.59 20.1C36.59 20.1 36.59 20.1 36.59 20.1C35.69 19.35 34.76 19.35 33.77 20.09C32.39 21.13 31.12 22.28 29.45 22.97Z" fill="#28B4AD" fill-opacity="1.000000" fill-rule="nonzero"/>
	<path id="Vector" d="M20.6 6.68C21.41 6.68 22.07 7.33 22.07 8.13C22.07 8.93 21.41 9.58 20.6 9.58C19.78 9.58 19.13 8.93 19.13 8.13C19.13 7.33 19.78 6.68 20.6 6.68Z" fill="#FEFEFE" fill-opacity="1.000000" fill-rule="nonzero"/>
	<path id="Vector" d="M25.53 6.86C26.34 6.86 27 7.51 27 8.32C27 9.12 26.34 9.77 25.53 9.77C24.72 9.77 24.06 9.12 24.06 8.32C24.06 7.51 24.72 6.86 25.53 6.86Z" fill="#FEFEFE" fill-opacity="1.000000" fill-rule="nonzero"/>
	<path id="Vector" d="M28.5 14.86C29.14 14.82 29.55 14.29 30.06 14.07C30.35 13.94 30.63 13.97 30.9 14.15C32.07 14.93 32.3 15.98 32.28 17.31C32.28 17.42 32.19 17.5 32.08 17.5C32.05 17.5 32.02 17.5 32 17.48L31.94 17.45C31.87 17.42 31.83 17.37 31.83 17.3C31.81 16.89 31.79 15.97 31.51 15.66C31.48 15.63 31.43 15.63 31.4 15.66C31.4 15.66 31.39 15.67 31.39 15.67C31.05 16.31 32.25 18 31.87 18.58C31.84 18.63 31.78 18.66 31.72 18.66L31.42 18.67C31.36 18.67 31.31 18.72 31.31 18.78L31.26 21.04C31.25 21.21 31.1 21.35 30.93 21.34C30.93 21.34 30.93 21.34 30.93 21.34C30.18 21.32 30.74 18.85 30.48 18.67C30.37 18.59 30.32 18.62 30.32 18.75C30.32 19.2 30.42 21.19 29.97 21.34C29.71 21.42 29.58 21.33 29.57 21.06L29.51 18.78C29.51 18.73 29.47 18.7 29.42 18.7C29.42 18.7 29.42 18.7 29.41 18.7C28.4 18.82 29.26 16.88 29.39 16.47C29.5 16.12 29.47 15.78 29.46 15.42C29.46 15.38 29.42 15.34 29.39 15.35C29.39 15.35 29.38 15.35 29.38 15.35L28.01 15.43C27.75 15.44 27.62 15.32 27.64 15.06C27.67 14.46 27.64 12.92 27.09 12.54C27.06 12.52 27.02 12.53 27 12.56C27 12.57 27 12.58 27 12.58C26.92 13.14 26.96 13.66 27.11 14.13C27.32 14.78 28.63 17.93 27.01 17.57C26.97 17.56 26.92 17.58 26.92 17.63C26.92 17.63 26.92 17.64 26.92 17.64C26.87 18.76 26.83 19.86 26.8 20.95C26.79 21.3 26.62 21.51 26.28 21.57C25.96 21.64 25.79 21.51 25.77 21.18C25.74 20.73 25.73 17.66 25.52 17.54C25.49 17.52 25.44 17.53 25.42 17.56C25.42 17.57 25.41 17.58 25.41 17.6L25.32 21C25.32 21.14 25.26 21.27 25.17 21.38C25 21.58 24.79 21.62 24.55 21.5C24.35 21.4 24.25 21.24 24.25 21.02L24.16 17.68C24.16 17.61 24.1 17.55 24.03 17.55L23.5 17.53C23.43 17.53 23.37 17.49 23.34 17.44C22.85 16.66 24.23 13.85 24.05 12.58C24.04 12.52 24.01 12.5 23.95 12.55C23.39 12.98 23.41 14.28 23.47 14.94C23.5 15.22 23.37 15.37 23.08 15.38L22.8 15.38C22.72 15.39 22.66 15.33 22.66 15.25L22.66 15.25C22.66 14.84 22.72 12.63 22.12 12.25C22.06 12.21 22.03 12.23 22.03 12.3C22.04 15.17 21.99 18.04 21.87 20.9C21.85 21.27 21.72 21.5 21.35 21.58C21.02 21.65 20.85 21.51 20.83 21.18C20.82 20.75 20.72 16.71 20.6 16.67C20.56 16.66 20.51 16.69 20.5 16.73C20.5 16.74 20.5 16.75 20.5 16.75C20.47 18.11 20.44 19.46 20.39 20.81C20.38 21.25 20.17 21.75 19.63 21.5C19.42 21.41 19.31 21.25 19.31 21.02L19.17 12.49C19.17 12.34 19.08 12.22 18.97 12.21C18.68 12.2 18.57 14.64 18.58 14.91C18.59 15.17 18.47 15.32 18.21 15.37C17.78 15.44 17.36 15.42 16.95 15.32C16.91 15.3 16.85 15.33 16.84 15.38C16.84 15.38 16.84 15.39 16.84 15.4L16.75 21C16.75 21.18 16.61 21.32 16.43 21.33C15.62 21.38 16.23 18.75 15.96 18.51C15.9 18.45 15.87 18.47 15.86 18.55C15.76 19.41 15.91 20.98 15.5 21.29C15.45 21.33 15.38 21.34 15.32 21.31C15.12 21.22 15.03 21.04 15.03 20.77C15.05 19.91 15.01 18.99 14.91 17.98C14.84 17.23 14.95 16.44 14.87 15.65C14.87 15.58 14.85 15.58 14.82 15.64C14.49 16.18 14.38 16.66 14.48 17.06C14.54 17.31 14.46 17.46 14.23 17.5C14.14 17.52 14.06 17.46 14.05 17.38C14.04 17.37 14.04 17.37 14.04 17.36C13.96 16.03 14.29 14.7 15.59 14.05C15.82 13.93 16.05 13.94 16.27 14.08L17.59 14.88C17.71 14.95 17.77 14.92 17.76 14.78C17.62 12.9 17.96 10.08 20.45 9.85C21.87 9.71 22.56 10.68 23.18 11.84C23.22 11.91 23.26 11.91 23.3 11.84C23.77 10.96 24.48 10.37 25.43 10.06C25.49 10.04 25.56 10.04 25.62 10.06C27.82 10.82 28.27 12.69 28.39 14.76C28.39 14.82 28.44 14.86 28.5 14.86L28.5 14.86Z" fill="#FEFEFE" fill-opacity="1.000000" fill-rule="nonzero"/>
	<path id="Vector" d="M15.89 11.87C16.42 11.87 16.85 12.3 16.85 12.82C16.85 13.35 16.42 13.77 15.89 13.77C15.35 13.77 14.92 13.35 14.92 12.82C14.92 12.3 15.35 11.87 15.89 11.87Z" fill="#FEFEFE" fill-opacity="1.000000" fill-rule="nonzero"/>
	<path id="Vector" d="M30.41 11.87C30.95 11.87 31.38 12.29 31.38 12.82C31.38 13.35 30.95 13.78 30.41 13.78C29.88 13.78 29.44 13.35 29.44 12.82C29.44 12.29 29.88 11.87 30.41 11.87Z" fill="#FEFEFE" fill-opacity="1.000000" fill-rule="nonzero"/>
</svg>
