<?xml version="1.0" encoding="utf-8"?><svg viewBox="0 0 80 80" xmlns="http://www.w3.org/2000/svg" xmlns:xlink="http://www.w3.org/1999/xlink"><style>:root>svg{display:none}:root>svg:target{display:block}</style><svg fill="none" viewBox="0 0 24 24" id="i-arrow-btn" xmlns="http://www.w3.org/2000/svg"><defs><clipPath id="aaa"><rect rx="-.5" width="23" height="23" transform="translate(.5 .5)" fill="#fff" fill-opacity="0"/></clipPath></defs><rect rx="-.5" width="23" height="23" transform="translate(.5 .5)" fill="none"/><g clip-path="url(#aaa)" stroke="#3DA6D3" stroke-width="2" stroke-linejoin="round" stroke-linecap="round"><path d="M7 17V7h10M17 17 7 7"/></g></svg><svg fill="none" viewBox="0 0 24 24" id="i-arrow-right" xmlns="http://www.w3.org/2000/svg"><defs><clipPath id="aba"><path fill="#fff" fill-opacity="0" d="M0 0h24v24H0z"/></clipPath></defs><path fill="none" d="M0 0h24v24H0z"/><g clip-path="url(#aba)" stroke="#EDEEF1" stroke-width="2" stroke-linejoin="round" stroke-linecap="round"><path d="M5 12h14M12 5l7 7-7 7"/></g></svg><svg fill="none" viewBox="0 0 16 16" id="i-arrow-small-down" xmlns="http://www.w3.org/2000/svg"><defs><clipPath id="aca"><path fill="#fff" fill-opacity="0" d="M0 0h16v16H0z"/></clipPath></defs><path fill="none" d="M0 0h16v16H0z"/><g clip-path="url(#aca)"><path d="m4 6 4 4 4-4" stroke="#111010" stroke-width="1.5" stroke-linejoin="round" stroke-linecap="round"/></g></svg><svg fill="none" viewBox="0 0 16 16" id="i-back" xmlns="http://www.w3.org/2000/svg"><defs><clipPath id="ada"><path fill="#fff" fill-opacity="0" d="M0 0h16v16H0z"/></clipPath></defs><path fill="none" d="M0 0h16v16H0z"/><g clip-path="url(#ada)" stroke="#111010" stroke-width="1.5" stroke-linejoin="round" stroke-linecap="round"><path d="M8 12.66 3.33 8 8 3.33M12.67 8H3.33"/></g></svg><svg fill="none" viewBox="0 0 64 64" id="i-card-1" xmlns="http://www.w3.org/2000/svg"><defs><clipPath id="aea"><rect rx="-.5" width="63" height="63" transform="translate(.5 .5)" fill="#fff" fill-opacity="0"/></clipPath></defs><g clip-path="url(#aea)"><rect rx="-.5" width="63" height="63" transform="translate(.5 .5)" fill="none"/><path d="M56.97 51.45c0 1.85 0 2.77-.56 3.35l-.05.05c-.58.56-1.5.56-3.35.56H10.98c-1.85 0-2.77 0-3.35-.56l-.05-.05c-.56-.58-.56-1.5-.56-3.35V23.47c0-1.85 0-2.77.56-3.35l.05-.05c.58-.56 1.5-.56 3.35-.56h42.03c1.85 0 2.77 0 3.35.56l.05.05c.56.58.56 1.5.56 3.35v27.98Zm-35.9-31.94v-7.96c0-1.38 0-2.08.42-2.51.01-.01.02-.03.03-.04.44-.42 1.13-.42 2.52-.42h15.91c1.38 0 2.08 0 2.51.42.02.01.03.03.04.04.42.43.42 1.12.42 2.51v7.96" stroke="#3DA6D3" stroke-width="4"/><path d="M28.66 28.76c.24-.58.69-1.03 1.27-1.27.43-.18.97-.18 2.07-.18 1.08 0 1.63 0 2.06.18.58.24 1.03.69 1.27 1.27.18.43.18.97.18 2.06v2.23c0 .06 0 .08.01.1.02.01.05.01.1.01h2.23c1.09 0 1.63 0 2.06.18.58.24 1.03.7 1.27 1.27.18.43.18.98.18 2.07 0 1.09 0 1.63-.18 2.07a2.34 2.34 0 0 1-1.27 1.26c-.43.18-.97.18-2.06.18h-2.23c-.05 0-.08 0-.1.02-.01.01-.01.04-.01.09v2.23c0 1.09 0 1.64-.18 2.07-.24.57-.69 1.03-1.27 1.26-.43.18-.98.18-2.06.18-1.1 0-1.64 0-2.07-.18-.58-.23-1.03-.69-1.27-1.26-.18-.43-.18-.98-.18-2.07V40.3c0-.05 0-.08-.02-.09-.01-.02-.04-.02-.09-.02h-2.23c-1.09 0-1.64 0-2.07-.18-.57-.24-1.03-.69-1.26-1.26-.18-.44-.18-.98-.18-2.07 0-1.09 0-1.64.18-2.07.23-.57.69-1.03 1.26-1.27.43-.18.98-.18 2.07-.18h2.23c.05 0 .08 0 .09-.01.02-.02.02-.04.02-.1v-2.23c0-1.09 0-1.63.18-2.06Z" stroke="#3DA6D3" stroke-width="4"/></g></svg><svg fill="none" viewBox="0 0 64 64" id="i-card-2" xmlns="http://www.w3.org/2000/svg"><defs><clipPath id="afa"><rect rx="-.5" width="63" height="63" transform="translate(.5 .5)" fill="#fff" fill-opacity="0"/></clipPath></defs><g clip-path="url(#afa)"><rect rx="-.5" width="63" height="63" transform="translate(.5 .5)" fill="none"/><path d="M24.19 55.97c-8.62 0-15.61-6.99-15.61-15.61s6.99-15.61 15.61-15.61S39.8 31.74 39.8 40.36s-6.99 15.61-15.61 15.61ZM47.79 55.97a3.34 3.34 0 1 1 3.34-3.34c0 1.85-1.49 3.34-3.34 3.34Z" stroke="#3DA6D3" stroke-width="4"/><path d="M47.79 49V33.15c0-.27-.22-.5-.5-.5h-9.52m5.68 0V21.66c0-.83-.67-1.5-1.5-1.5H20.54m0 4.93V9.58c0-.55-.45-1-1-1h-4.81m33.06 35.34h6.06" stroke="#3DA6D3" stroke-width="4" stroke-linecap="round"/></g></svg><svg fill="none" viewBox="0 0 64 64" id="i-card-3" xmlns="http://www.w3.org/2000/svg"><defs><clipPath id="aga"><rect rx="-.5" width="63" height="63" transform="translate(.5 .5)" fill="#fff" fill-opacity="0"/></clipPath></defs><g clip-path="url(#aga)"><rect rx="-.5" width="63" height="63" transform="translate(.5 .5)" fill="none"/><path d="M35.12 10.14h.3c2.77 0 4.16 0 5.03.85.02.02.05.04.07.06.84.87.84 2.26.84 5.03v19.64c0 5.54 0 8.31-1.69 10.06-.04.05-.09.09-.13.13-1.75 1.69-4.52 1.69-10.06 1.69h-7.46c-5.54 0-8.31 0-10.05-1.69-.05-.04-.09-.08-.14-.13-1.69-1.75-1.69-4.52-1.69-10.06V16.08c0-2.77 0-4.16.85-5.03.02-.02.04-.04.07-.06.87-.85 2.25-.85 5.02-.85h1.87m3.12 3.12c-1.72 0-3.12-1.4-3.12-3.12 0-1.72 1.4-3.12 3.12-3.12 1.73 0 3.12 1.4 3.12 3.12 0 1.72-1.39 3.12-3.12 3.12Zm10.93 0c-1.73 0-3.13-1.4-3.13-3.12a3.126 3.126 0 0 1 6.25 0c0 1.72-1.4 3.12-3.12 3.12ZM25.75 47.6c0 15.61 26.54 17.17 26.54 0V35.12M52.29 35.12a4.69 4.69 0 0 1-4.69-4.69 4.686 4.686 0 1 1 4.69 4.69Z" stroke="#3DA6D3" stroke-width="4"/><path d="M52.32 30.4v.03h-.03v-.03h.03Z" stroke="#FFF" stroke-width="4" stroke-linejoin="round"/></g></svg><svg fill="none" viewBox="0 0 64 64" id="i-card-4" xmlns="http://www.w3.org/2000/svg"><defs><clipPath id="aha"><rect rx="-.5" width="63" height="63" transform="translate(.5 .5)" fill="#fff" fill-opacity="0"/></clipPath></defs><g clip-path="url(#aha)"><rect rx="-.5" width="63" height="63" transform="translate(.5 .5)" fill="none"/><path d="M48.75 5.46c.92 0 1.38 0 1.67.28.01.01.02.01.02.02.29.29.29.75.29 1.68v49.11c0 .92 0 1.39-.29 1.68 0 .01-.01.01-.02.02-.29.28-.75.28-1.67.28h-33.5c-.93 0-1.39 0-1.68-.28-.01-.01-.02-.01-.02-.02-.29-.29-.29-.76-.29-1.68V7.44c0-.93 0-1.39.29-1.68 0-.01.01-.01.02-.02.29-.28.75-.28 1.68-.28h33.5Z" stroke="#3DA6D3" stroke-width="4"/><circle cx="22.633" cy="16.389" r="3.122" stroke="#3DA6D3" stroke-width="4"/><circle cx="41.363" cy="16.389" r="3.122" stroke="#3DA6D3" stroke-width="4"/><circle cx="22.633" cy="32" r="3.122" stroke="#3DA6D3" stroke-width="4"/><circle cx="41.363" cy="32" r="3.122" stroke="#3DA6D3" stroke-width="4"/><circle cx="22.633" cy="47.609" r="3.122" stroke="#3DA6D3" stroke-width="4"/><circle cx="41.363" cy="47.609" r="3.122" stroke="#3DA6D3" stroke-width="4"/><path d="M32 13.26v37.47" stroke="#3DA6D3" stroke-width="4" stroke-linecap="round"/></g></svg><svg fill="none" viewBox="0 0 64 64" id="i-card-5" xmlns="http://www.w3.org/2000/svg"><defs><clipPath id="aia"><rect rx="-.5" width="63" height="63" transform="translate(.5 .5)" fill="#fff" fill-opacity="0"/></clipPath></defs><g clip-path="url(#aia)"><rect rx="-.5" width="63" height="63" transform="translate(.5 .5)" fill="none"/><path d="M13.26 19.51h37.47c4.68 0 4.68 6.24 0 6.24h-6.25c-1.72 0-3.12 1.4-3.12 3.12v29.66c0 4.68-6.24 4.68-6.24 0s0-14.05-3.12-14.05c-3.13 0-3.13 9.37-3.13 14.05 0 4.68-6.24 4.68-6.24 0V28.86c0-1.72-1.4-3.11-3.12-3.11h-6.25c-4.68 0-4.68-6.24 0-6.24ZM32 14.83c-3.45 0-6.25-2.8-6.25-6.25s2.8-6.24 6.25-6.24c3.44 0 6.24 2.79 6.24 6.24s-2.8 6.25-6.24 6.25Z" stroke="#3DA6D3" stroke-width="4"/></g></svg><svg fill="none" viewBox="0 0 64 64" id="i-card-6" xmlns="http://www.w3.org/2000/svg"><defs><clipPath id="aja"><rect rx="-.5" width="63" height="63" transform="translate(.5 .5)" fill="#fff" fill-opacity="0"/></clipPath></defs><g clip-path="url(#aja)"><rect rx="-.5" width="63" height="63" transform="translate(.5 .5)" fill="none"/><path d="M45.6 52.29c1.11 0 2 .89 2 2v3.74c0 .28-.22.5-.5.5H16.89c-.28 0-.5-.22-.5-.5v-3.74c0-1.11.89-2 2-2H45.6ZM15.77 41.36s2.28 3.3 3.78 4.64a18.757 18.757 0 0 0 18.35 3.77 18.692 18.692 0 0 0 12.44-14 18.724 18.724 0 0 0-2.84-14.28l-.23-.25m-4.35 2.95.31.58c.6.94 1.09 1.95 1.44 3.01.74 2.23.88 4.61.41 6.91a13.28 13.28 0 0 1-3.1 6.18 13.414 13.414 0 0 1-5.77 3.8c-2.23.74-4.61.88-6.91.41-2.57-.53-6.83-3.72-6.83-3.72m20.45-26.53a4.66 4.66 0 0 1 4.68 4.68c0 .61-.11 1.19-.33 1.73a4.685 4.685 0 0 1-4.35 2.95c-1.65 0-3.1-.85-3.93-2.14-.48-.73-.75-1.61-.75-2.54 0-2.59 2.09-4.68 4.68-4.68Zm-3.93 7.22-9.07 6.94c-.87.67-2.12.51-2.78-.37l-3.89-5.08c-.33-.42-.49-.63-.59-.83a2.49 2.49 0 0 1 .37-2.82c.15-.16.36-.32.78-.65L39.4 7.3c1.48-1.13 2.22-1.69 3.02-1.72.27 0 .54.03.8.11.77.23 1.33.97 2.46 2.44l1.92 2.51c.75.98 1.13 1.46 1.25 1.97.15.61.06 1.25-.24 1.8-.25.46-.74.83-1.71 1.58l-.5.38m4.19-9.23c.83 1.08.72 2.64-.37 3.52-.73.59-1.76.57-2.37-.21l-.96-1.26-.96-1.26c-.6-.77-.35-1.79.41-2.34 1.13-.82 2.67-.52 3.5.57l.75.98Zm-4.66.79-.25.2m2.17 2.32-.25.19M27.14 28.62l-3.2 2.45c-.75.58-1.12.86-1.51.98-.6.18-1.24.09-1.77-.24-.34-.21-.63-.58-1.2-1.33-.58-.75-.87-1.13-.98-1.51-.18-.6-.09-1.24.23-1.77.21-.35.59-.63 1.34-1.21l3.2-2.45" stroke="#3DA6D3" stroke-width="4"/><path d="M14.82 41.36h12.49" stroke="#3DA6D3" stroke-width="4" stroke-linecap="round"/></g></svg><svg fill="none" viewBox="0 0 16 16" id="i-clock" xmlns="http://www.w3.org/2000/svg"><defs><clipPath id="aka"><path fill="#fff" fill-opacity="0" d="M0 0h16v16H0z"/></clipPath></defs><path fill="none" d="M0 0h16v16H0z"/><g clip-path="url(#aka)" stroke="#111010" stroke-width="1.5" stroke-linejoin="round"><path d="M8 14.66A6.66 6.66 0 0 1 1.33 8c0-3.69 2.98-6.67 6.67-6.67 3.67 0 6.66 2.98 6.66 6.67 0 3.68-2.99 6.66-6.66 6.66Z"/><path d="M8 4v4l2.66 1.33" stroke-linecap="round"/></g></svg><svg fill="none" viewBox="0 0 24 24" id="i-close" xmlns="http://www.w3.org/2000/svg"><defs><clipPath id="ala"><path fill="#fff" fill-opacity="0" d="M0 0h24v24H0z"/></clipPath></defs><path fill="none" d="M0 0h24v24H0z"/><g clip-path="url(#ala)" stroke="#3DA6D3" stroke-width="2" stroke-linejoin="round" stroke-linecap="round"><path d="m7.05 16.94 9.89-9.9M7.05 7.05l9.89 9.9"/></g></svg><svg fill="none" viewBox="0 0 40 40" id="i-direction-1" xmlns="http://www.w3.org/2000/svg"><defs><clipPath id="ama"><path fill="#fff" fill-opacity="0" d="M0 0h40v40H0z"/></clipPath></defs><path fill="none" d="M0 0h40v40H0z"/><g clip-path="url(#ama)"><path d="M18.33 3.33c6.78 0 12.38 5.06 13.22 11.61l3.75 5.89c.25.39.2.97-.37 1.22l-3.27 1.39v4.89c0 1.84-1.49 3.33-3.33 3.33H25v5H10V30.5c0-1.96-.73-3.82-2.08-5.5A13.313 13.313 0 0 1 5 16.66C5 9.3 10.97 3.33 18.33 3.33Zm0 3.33c-5.52 0-10 4.48-10 10 0 2.31.78 4.49 2.19 6.25 1.82 2.27 2.81 4.86 2.81 7.59v2.83h8.33v-5h6.67v-7.08l2.58-1.11-2.57-4.04-.09-.74c-.65-4.95-4.88-8.7-9.92-8.7Zm0 5c.92 0 1.67.75 1.67 1.67V15h1.66c.92 0 1.67.74 1.67 1.66 0 .92-.75 1.67-1.67 1.67H20V20a1.67 1.67 0 0 1-3.34 0v-1.67H15c-.92 0-1.67-.75-1.67-1.67 0-.92.75-1.66 1.67-1.66l1.66-.01v-1.66c0-.92.75-1.67 1.67-1.67Z" fill="#3DA6D3" fill-rule="evenodd"/></g></svg><svg fill="none" viewBox="0 0 40 40" id="i-direction-2" xmlns="http://www.w3.org/2000/svg"><defs><clipPath id="ana"><path fill="#fff" fill-opacity="0" d="M0 0h40v40H0z"/></clipPath></defs><path fill="none" d="M0 0h40v40H0z"/><g clip-path="url(#ana)"><path d="M28.33 3.33v3.33h5c.92 0 1.67.75 1.67 1.67V35c0 .91-.75 1.66-1.67 1.66H6.66C5.74 36.66 5 35.91 5 35V8.33c0-.92.74-1.67 1.66-1.67h5V3.33h16.67ZM11.66 10H8.33v23.33h23.33V10h-3.33v3.33H11.66V10Zm10 8.33v3.33H25V25h-3.34v3.33h-3.33V25H15v-3.34h3.33v-3.33h3.33ZM25 6.66H15V10h10V6.66Z" fill="#3DA6D3" fill-rule="evenodd"/></g></svg><svg fill="none" viewBox="0 0 40 40" id="i-direction-3" xmlns="http://www.w3.org/2000/svg"><defs><clipPath id="aoa"><path fill="#fff" fill-opacity="0" d="M0 0h40v40H0z"/></clipPath></defs><path fill="none" d="M0 0h40v40H0z"/><g clip-path="url(#aoa)"><path d="M30.6 18.3a6.645 6.645 0 0 1 0 9.42l-9.43 9.43c-.65.65-1.7.65-2.35 0l-9.43-9.43c-2.6-2.6-2.6-6.82 0-9.43 2.6-2.6 6.82-2.6 9.43 0l1.17 1.18 1.18-1.18c2.61-2.6 6.83-2.6 9.43.01Zm-18.85 2.35c-1.3 1.3-1.3 3.41 0 4.71L20 33.61l8.25-8.25c1.3-1.3 1.3-3.41 0-4.71a3.344 3.344 0 0 0-4.72 0l-3.54 3.53-3.53-3.53c-1.3-1.3-3.41-1.3-4.71 0ZM20 1.66c3.68 0 6.66 2.99 6.66 6.67 0 3.68-2.98 6.67-6.66 6.67-3.69 0-6.67-2.99-6.67-6.67 0-3.68 2.98-6.67 6.67-6.67ZM20 5a3.331 3.331 0 1 0 0 6.66c1.84 0 3.33-1.49 3.33-3.33S21.84 5 20 5Z" fill="#3DA6D3" fill-rule="evenodd"/></g></svg><svg fill="none" viewBox="0 0 40 40" id="i-direction-4" xmlns="http://www.w3.org/2000/svg"><defs><clipPath id="apa"><path fill="#fff" fill-opacity="0" d="M0 0h40v40H0z"/></clipPath></defs><path fill="none" d="M0 0h40v40H0z"/><g clip-path="url(#apa)"><path d="M33.33 3.33c.92 0 1.67.75 1.67 1.67v30c0 .91-.75 1.66-1.67 1.66H10c-.92 0-1.67-.75-1.67-1.66v-3.34H5v-3.33h3.33V25H5v-3.34h3.33v-3.33H5V15h3.33v-3.34H5V8.33h3.33V5c0-.92.75-1.67 1.67-1.67h23.33Zm-1.67 3.33h-20v26.67h20V6.66Zm-8.33 6.67v5h5v3.33h-5v5H20l-.01-5H15v-3.33h5v-5h3.33Z" fill="#3DA6D3" fill-rule="evenodd"/></g></svg><svg fill="none" viewBox="0 0 40 40" id="i-direction-5" xmlns="http://www.w3.org/2000/svg"><defs><clipPath id="aqa"><path fill="#fff" fill-opacity="0" d="M0 0h40v40H0z"/></clipPath></defs><path fill="none" d="M0 0h40v40H0z"/><g clip-path="url(#aqa)"><path d="M20 25c6.79 0 12.41 5.08 13.23 11.66H6.76C7.58 30.08 13.19 25 20 25Zm-3.03 3.79c-2.39.76-4.4 2.39-5.64 4.54H20l-3.03-4.54Zm6.05 0L20 33.33h8.66a10.025 10.025 0 0 0-5.64-4.54ZM30 3.33v10c0 5.52-4.48 10-10 10-5.53 0-10-4.48-10-10v-10h20Zm-16.67 10c0 3.68 2.98 6.67 6.67 6.67 3.68 0 6.66-2.99 6.66-6.67H13.33Zm13.33-6.67H13.33V10h13.33V6.66Z" fill="#3DA6D3" fill-rule="evenodd"/></g></svg><svg fill="none" viewBox="0 0 80 80" id="i-double-check" xmlns="http://www.w3.org/2000/svg"><defs><clipPath id="ara"><path fill="#fff" fill-opacity="0" d="M0 0h80v80H0z"/></clipPath></defs><path fill="none" d="M0 0h80v80H0z"/><g clip-path="url(#ara)" stroke="#3DA6D3" stroke-width="6" stroke-linejoin="round" stroke-linecap="round"><path d="M60 20 23.33 56.66 6.66 40M73.33 33.33l-25 25-5-5"/></g></svg><svg fill="none" viewBox="0 0 20 20" id="i-email" xmlns="http://www.w3.org/2000/svg"><defs><clipPath id="asa"><path fill="#fff" fill-opacity="0" d="M0 0h20v20H0z"/></clipPath></defs><path fill="none" d="M0 0h20v20H0z"/><g clip-path="url(#asa)" stroke="#111010" stroke-width="1.5" stroke-linejoin="round"><path d="M16.66 3.33c.92 0 1.67.75 1.67 1.67v10c0 .92-.75 1.66-1.67 1.66H3.33c-.92 0-1.67-.74-1.67-1.66V5c0-.92.75-1.67 1.67-1.67h13.33Z"/><path d="m18.33 5.83-7.48 4.75a1.593 1.593 0 0 1-1.71 0L1.66 5.83" stroke-linecap="round"/></g></svg><svg fill="none" viewBox="0 0 24 24" id="i-facebook" xmlns="http://www.w3.org/2000/svg"><defs><clipPath id="ata"><path fill="#fff" fill-opacity="0" d="M0 0h24v24H0z"/></clipPath></defs><path fill="none" d="M0 0h24v24H0z"/><g clip-path="url(#ata)"><path d="M15 2c-1.33 0-2.6.52-3.54 1.46S10 5.67 10 7v3H7v4h3v8h4v-8h3l1-4h-4V7a.99.99 0 0 1 1-1h3V2h-3Z" stroke="#3DA6D3" stroke-width="2" stroke-linejoin="round"/></g></svg><svg viewBox="0 0 20 34.892" id="i-google-maps-pin" xmlns="http://www.w3.org/2000/svg"><g transform="matrix(1.18559 0 0 1.18559 -965.773 -331.784)"><path d="M817.112 282.971c-1.258 1.343-2.046 3.299-2.015 5.139.064 3.845 1.797 5.3 4.568 10.592.999 2.328 2.04 4.792 3.031 8.873.138.602.272 1.16.335 1.21.062.048.196-.513.334-1.115.99-4.081 2.033-6.543 3.031-8.871 2.771-5.292 4.504-6.748 4.568-10.592.031-1.84-.759-3.798-2.017-5.14-1.437-1.535-3.605-2.67-5.916-2.717-2.312-.048-4.481 1.087-5.919 2.621z" style="display:inline;opacity:1;fill:#ff4646;fill-opacity:1;stroke:#d73534;stroke-width:1;stroke-miterlimit:4;stroke-dasharray:none;stroke-opacity:1"/><circle r="3.035" cy="288.253" cx="823.031" style="display:inline;opacity:1;fill:#590000;fill-opacity:1;stroke-width:0"/></g></svg><svg fill="none" viewBox="0 0 40 40" id="i-heart-add" xmlns="http://www.w3.org/2000/svg"><defs><clipPath id="ava"><path fill="#fff" fill-opacity="0" d="M0 0h40v40H0z"/></clipPath></defs><path fill="none" d="M0 0h40v40H0z"/><g clip-path="url(#ava)"><path d="M31.66 23.33v5h5v3.33h-5v5h-3.33v-5h-5v-3.33h5v-5h3.33Zm2.07-15.41c3.77 3.78 3.9 9.8.4 13.73l-2.37-2.36c2.22-2.54 2.1-6.53-.39-9.01-2.5-2.5-6.53-2.61-9.15-.26l-2.22 2-2.23-1.99c-2.62-2.36-6.65-2.25-9.15.25a6.663 6.663 0 0 0-.32 9.09l14.05 14.07L20 35.8 5.86 21.65c-3.5-3.93-3.37-9.96.39-13.73 3.78-3.77 9.82-3.9 13.75-.38 3.91-3.51 9.96-3.39 13.73.38Z" fill="#FFF" fill-rule="evenodd"/></g></svg><svg fill="none" viewBox="0 0 24 24" id="i-home" xmlns="http://www.w3.org/2000/svg"><defs><clipPath id="awa"><path fill="#fff" fill-opacity="0" d="M0 0h24v24H0z"/></clipPath></defs><path fill="none" d="M0 0h24v24H0z"/><g clip-path="url(#awa)" stroke="#3DA6D3" stroke-width="2" stroke-linejoin="round"><path d="m12 2 9 7v11c0 .53-.22 1.03-.59 1.41-.38.37-.88.59-1.41.59H5c-.54 0-1.04-.22-1.42-.59C3.21 21.03 3 20.53 3 20V9l9-7Z"/><path d="M9 22V12h6v10" stroke-linecap="round"/></g></svg><svg fill="none" viewBox="0 0 24 24" id="i-instagram" xmlns="http://www.w3.org/2000/svg"><defs><clipPath id="axa"><path fill="#fff" fill-opacity="0" d="M0 0h24v24H0z"/></clipPath></defs><path fill="none" d="M0 0h24v24H0z"/><g clip-path="url(#axa)" stroke="#3DA6D3" stroke-width="2" stroke-linejoin="round"><path d="M17 2c2.76 0 5 2.23 5 5v10c0 2.76-2.24 5-5 5H7c-2.77 0-5-2.24-5-5V7c0-2.77 2.23-5 5-5h10Z"/><path d="M15.59 13.79a4 4 0 0 1-1.76 1.74c-.75.37-1.6.51-2.43.37a3.92 3.92 0 0 1-2.19-1.12c-.59-.59-.99-1.36-1.12-2.19a4.04 4.04 0 0 1 .37-2.44c.38-.75.99-1.36 1.73-1.75.75-.39 1.6-.53 2.43-.4.86.12 1.64.52 2.25 1.12.6.61 1 1.4 1.13 2.25.12.83-.02 1.68-.41 2.42Z"/><path d="M17.5 6.5h.01" stroke-linecap="round"/></g></svg><svg fill="none" viewBox="0 0 16 16" id="i-map-pin" xmlns="http://www.w3.org/2000/svg"><defs><clipPath id="aya"><path fill="#fff" fill-opacity="0" d="M0 0h16v16H0z"/></clipPath></defs><path fill="none" d="M0 0h16v16H0z"/><g clip-path="url(#aya)" stroke="#111010" stroke-width="1.5" stroke-linejoin="round"><path d="M8 14.66s-5.34-4-5.34-8A5.346 5.346 0 0 1 8 1.33c1.41 0 2.77.56 3.77 1.56s1.56 2.36 1.56 3.77c0 4-5.33 8-5.33 8Z"/><path d="M8 8.66c-1.11 0-2-.89-2-2a2 2 0 1 1 2 2Z"/></g></svg><svg fill="none" viewBox="0 0 24 24" id="i-menu" xmlns="http://www.w3.org/2000/svg"><defs><clipPath id="aza"><path fill="#fff" fill-opacity="0" d="M0 0h24v24H0z"/></clipPath></defs><path fill="none" d="M0 0h24v24H0z"/><g clip-path="url(#aza)" stroke="#3DA6D3" stroke-width="2" stroke-linejoin="round" stroke-linecap="round"><path d="M4 12h16M4 6h16M4 18h16"/></g></svg><svg fill="none" viewBox="0 0 16 16" id="i-phone" xmlns="http://www.w3.org/2000/svg"><defs><clipPath id="baa"><path fill="#fff" fill-opacity="0" d="M0 0h16v16H0z"/></clipPath></defs><path fill="none" d="M0 0h16v16H0z"/><g clip-path="url(#baa)"><path d="M14.66 13.28c0 .18-.04.37-.11.54-.07.17-.18.32-.32.44-.14.13-.3.23-.48.28-.17.06-.36.09-.54.07-2.05-.22-4.02-.93-5.76-2.05a13.048 13.048 0 0 1-4-4 13.163 13.163 0 0 1-2.04-5.78c-.02-.18 0-.37.06-.54.06-.18.15-.34.28-.48.12-.13.28-.24.44-.32.18-.07.36-.11.54-.11h2c.33 0 .64.11.89.32.24.21.4.51.45.83.08.64.24 1.27.46 1.87.09.24.11.5.06.75s-.18.48-.36.65l-.84.85c.94 1.67 2.33 3.05 4 4l.84-.85c.18-.17.41-.3.66-.35.25-.05.51-.03.75.06.61.22 1.23.38 1.87.46.33.05.62.21.83.46.22.25.33.57.32.9v2Z" stroke="#111010" stroke-width="1.5" stroke-linejoin="round"/></g></svg><svg fill="none" viewBox="0 0 40 40" id="i-photo" xmlns="http://www.w3.org/2000/svg"><defs><clipPath id="bba"><path fill="#fff" fill-opacity="0" d="M0 0h40v40H0z"/></clipPath></defs><path fill="none" d="M0 0h40v40H0z"/><g clip-path="url(#bba)" stroke="#FFF" stroke-width="3" stroke-linejoin="round"><path d="m15.83 6.66-4.17 5h-5c-.88 0-1.73.35-2.36.98-.62.62-.97 1.47-.97 2.36v15a3.33 3.33 0 0 0 3.33 3.33h26.67c.88 0 1.73-.35 2.35-.98.63-.62.98-1.47.98-2.35V15c0-.89-.35-1.74-.98-2.36-.62-.63-1.47-.98-2.35-.98h-5l-4.17-5h-8.33Z"/><path d="M20 26.66c-2.77 0-5-2.24-5-5s2.23-5 5-5c2.76 0 5 2.24 5 5s-2.24 5-5 5Z"/></g></svg><svg fill="none" viewBox="0 0 24 24" id="i-search" xmlns="http://www.w3.org/2000/svg"><defs><clipPath id="bca"><path fill="#fff" fill-opacity="0" d="M0 0h24v24H0z"/></clipPath></defs><path fill="none" d="M0 0h24v24H0z"/><g clip-path="url(#bca)" stroke="#FFF" stroke-width="2" stroke-linejoin="round"><path d="M11 19c-4.42 0-8-3.59-8-8 0-4.42 3.58-8 8-8 4.41 0 8 3.58 8 8 0 4.41-3.59 8-8 8Z"/><path d="m21 21-4.3-4.31" stroke-linecap="round"/></g></svg><svg fill="none" viewBox="0 0 40 40" id="i-syringe" xmlns="http://www.w3.org/2000/svg"><defs><clipPath id="bda"><path fill="#fff" fill-opacity="0" d="M0 0h40v40H0z"/></clipPath></defs><path fill="none" d="M0 0h40v40H0z"/><g clip-path="url(#bda)"><path d="m36.12 13.29-2.35 2.36-3.54-3.53-3.53 3.53 5.89 5.89-2.36 2.36-1.18-1.18-10.6 10.61H9.02l-3.54 3.53-2.35-2.35 3.53-3.54v-9.43l10.61-10.6-1.18-1.18 2.36-2.36 5.89 5.89 3.53-3.53-3.53-3.54 2.36-2.35 9.42 9.42Zm-9.42 7.08-7.08-7.08-2.35 2.36 3.53 3.54-2.35 2.35-3.54-3.53-2.36 2.36 3.54 3.53-2.36 2.36-3.53-3.54-.2.2V30h7.07l9.63-9.63Z" fill="#FFF" fill-rule="evenodd"/></g></svg><svg fill="none" viewBox="0 0 40 40" id="i-test-tube" xmlns="http://www.w3.org/2000/svg"><defs><clipPath id="bea"><path fill="#fff" fill-opacity="0" d="M0 0h40v40H0z"/></clipPath></defs><path fill="none" d="M0 0h40v40H0z"/><g clip-path="url(#bea)"><path d="M28.33 3.33v3.33h-1.67V30c0 3.68-2.98 6.66-6.66 6.66A6.66 6.66 0 0 1 13.33 30V6.66h-1.67V3.33h16.67Zm-5 13.33h-6.67V30c0 1.84 1.49 3.33 3.34 3.33 1.84 0 3.33-1.49 3.33-3.33V16.66ZM21.66 25c.92 0 1.67.74 1.67 1.66 0 .92-.75 1.67-1.67 1.67-.92 0-1.66-.75-1.66-1.67 0-.92.74-1.66 1.66-1.66Zm-3.33-5c.92 0 1.67.74 1.67 1.66 0 .92-.75 1.67-1.67 1.67-.92 0-1.67-.75-1.67-1.67 0-.92.75-1.66 1.67-1.66Zm5-13.34h-6.67v6.67h6.67V6.66Z" fill="#FFF" fill-rule="evenodd"/></g></svg><svg fill="none" viewBox="0 0 40 40" id="i-time" xmlns="http://www.w3.org/2000/svg"><defs><clipPath id="bfa"><path fill="#fff" fill-opacity="0" d="M0 0h40v40H0z"/></clipPath></defs><path fill="none" d="M0 0h40v40H0z"/><g clip-path="url(#bfa)"><path d="M20 36.66C10.79 36.66 3.33 29.2 3.33 20c0-9.21 7.46-16.67 16.67-16.67 9.2 0 16.66 7.46 16.66 16.67 0 9.2-7.46 16.66-16.66 16.66Zm0-3.33c3.53 0 6.92-1.41 9.42-3.91s3.91-5.89 3.91-9.42c0-3.54-1.41-6.93-3.91-9.43S23.53 6.66 20 6.66c-3.54 0-6.93 1.41-9.43 3.91S6.66 16.46 6.66 20c0 3.53 1.41 6.92 3.91 9.42s5.89 3.91 9.43 3.91ZM21.66 20h6.67v3.33h-10V11.66h3.33V20Z" fill="#FFF" fill-rule="evenodd"/></g></svg><svg fill="none" viewBox="0 0 24 24" id="i-youtube" xmlns="http://www.w3.org/2000/svg"><defs><clipPath id="bga"><path fill="#fff" fill-opacity="0" d="M0 0h24v24H0z"/></clipPath></defs><path fill="none" d="M0 0h24v24H0z"/><g clip-path="url(#bga)" stroke="#3DA6D3" stroke-width="2" stroke-linejoin="round"><path d="M2.5 7c.09-.34.26-.64.51-.89s.55-.42.89-.52c5.36-.88 10.83-.88 16.2 0 .33.1.64.27.88.52.25.25.43.55.52.89.69 3.29.69 6.7 0 10-.09.33-.27.63-.52.88-.24.25-.55.42-.88.52-5.37.88-10.84.88-16.2 0-.34-.1-.64-.27-.89-.52s-.42-.55-.51-.88c-.7-3.3-.7-6.71 0-10Z"/><path d="m15 12-5-3v6l5-3Z"/></g></svg></svg>