<?xml version="1.0" encoding="utf-8"?><svg viewBox="0 0 82 82" xmlns="http://www.w3.org/2000/svg" xmlns:xlink="http://www.w3.org/1999/xlink"><style>:root>svg{display:none}:root>svg:target{display:block}</style><svg fill="none" viewBox="0 0 24 24" id="i-arrow-btn" xmlns="http://www.w3.org/2000/svg"><defs><clipPath id="aaa"><rect rx="-.5" width="23" height="23" transform="translate(.5 .5)" fill="#fff" fill-opacity="0"/></clipPath></defs><rect rx="-.5" width="23" height="23" transform="translate(.5 .5)" fill="none"/><g clip-path="url(#aaa)" stroke="#3DA6D3" stroke-width="2" stroke-linejoin="round" stroke-linecap="round"><path d="M7 17V7h10M17 17 7 7"/></g></svg><svg fill="none" viewBox="0 0 24 24" id="i-arrow-right" xmlns="http://www.w3.org/2000/svg"><defs><clipPath id="aba"><path fill="#fff" fill-opacity="0" d="M0 0h24v24H0z"/></clipPath></defs><path fill="none" d="M0 0h24v24H0z"/><g clip-path="url(#aba)" stroke="#EDEEF1" stroke-width="2" stroke-linejoin="round" stroke-linecap="round"><path d="M5 12h14M12 5l7 7-7 7"/></g></svg><svg fill="none" viewBox="0 0 16 16" id="i-arrow-small-down" xmlns="http://www.w3.org/2000/svg"><defs><clipPath id="aca"><path fill="#fff" fill-opacity="0" d="M0 0h16v16H0z"/></clipPath></defs><path fill="none" d="M0 0h16v16H0z"/><g clip-path="url(#aca)"><path d="m4 6 4 4 4-4" stroke="#111010" stroke-width="1.5" stroke-linejoin="round" stroke-linecap="round"/></g></svg><svg fill="none" viewBox="0 0 16 16" id="i-back" xmlns="http://www.w3.org/2000/svg"><defs><clipPath id="ada"><path fill="#fff" fill-opacity="0" d="M0 0h16v16H0z"/></clipPath></defs><path fill="none" d="M0 0h16v16H0z"/><g clip-path="url(#ada)" stroke="#111010" stroke-width="1.5" stroke-linejoin="round" stroke-linecap="round"><path d="M8 12.66 3.33 8 8 3.33M12.67 8H3.33"/></g></svg><svg fill="none" viewBox="0 0 82 82" id="i-card-1" xmlns="http://www.w3.org/2000/svg"><defs><clipPath id="aea"><path fill="#fff" fill-opacity="0" d="M0 0h82v82H0z"/></clipPath></defs><g clip-path="url(#aea)"><path fill="none" d="M0 0h82v82H0z"/><path d="M73 67.03c0 1.85 0 2.78-.57 3.36l-.04.04c-.59.57-1.51.57-3.36.57H12.96c-1.85 0-2.77 0-3.36-.57l-.04-.04C9 69.81 9 68.88 9 67.03V28.96c0-1.85 0-2.78.56-3.36l.04-.04c.59-.56 1.51-.56 3.36-.56h56.07c1.85 0 2.77 0 3.36.56l.04.04c.57.58.57 1.51.57 3.36v38.07ZM27 25V13.97c0-1.39 0-2.08.42-2.52l.03-.03c.44-.42 1.13-.42 2.51-.42h22.07c1.38 0 2.07 0 2.51.42l.03.03c.43.44.43 1.13.43 2.52V25" stroke="#3DA6D3" stroke-width="7"/><path d="M36.72 36.85c.31-.74.89-1.32 1.63-1.63C38.9 35 39.6 35 41 35c1.39 0 2.09 0 2.64.22.74.31 1.32.89 1.63 1.63.23.55.23 1.25.23 2.65v2.85c0 .07 0 .1.01.12.03.03.06.03.13.03h2.86c1.39 0 2.09 0 2.64.22.74.31 1.32.89 1.63 1.63.23.55.23 1.25.23 2.65 0 1.39 0 2.09-.23 2.64-.31.74-.89 1.32-1.63 1.63-.55.23-1.25.23-2.64.23h-2.86c-.07 0-.1 0-.13.02-.01.02-.01.05-.01.12v2.86c0 1.39 0 2.09-.23 2.64-.31.74-.89 1.32-1.63 1.63-.55.23-1.25.23-2.64.23-1.4 0-2.1 0-2.65-.23-.74-.31-1.32-.89-1.63-1.63-.22-.55-.22-1.25-.22-2.64v-2.86c0-.07 0-.1-.02-.12-.03-.02-.06-.02-.13-.02H33.5c-1.4 0-2.1 0-2.65-.23-.74-.31-1.32-.89-1.63-1.63C29 49.09 29 48.39 29 47c0-1.4 0-2.1.22-2.65.31-.74.89-1.32 1.63-1.63.55-.22 1.25-.22 2.65-.22h2.85c.07 0 .1 0 .13-.03.02-.02.02-.05.02-.12V39.5c0-1.4 0-2.1.22-2.65Z" stroke="#3DA6D3" stroke-width="7"/></g></svg><svg fill="none" viewBox="0 0 82 82" id="i-card-2" xmlns="http://www.w3.org/2000/svg"><defs><clipPath id="afa"><path fill="#fff" fill-opacity="0" d="M0 0h82v82H0z"/></clipPath></defs><g clip-path="url(#afa)"><path fill="none" d="M0 0h82v82H0z"/><path d="M31 71.72c-11.05 0-20-8.96-20-20 0-11.05 8.95-20 20-20 11.04 0 20 8.95 20 20 0 11.04-8.96 20-20 20ZM61.24 71.72a4.28 4.28 0 0 1-4.28-4.29 4.27 4.27 0 0 1 4.28-4.27c2.36 0 4.27 1.91 4.27 4.27 0 2.37-1.91 4.29-4.27 4.29Z" stroke="#3DA6D3" stroke-width="7"/><path d="M61.23 62.78V42.33c0-.27-.22-.5-.5-.5H48.39m7.28 0v-14.5c0-.82-.67-1.5-1.5-1.5H26.32m0 6.32V12c0-.56-.45-1-1-1h-6.45m42.36 45.27H69" stroke="#3DA6D3" stroke-width="7"/></g></svg><svg fill="none" viewBox="0 0 82 82" id="i-card-3" xmlns="http://www.w3.org/2000/svg"><defs><clipPath id="aga"><path fill="#fff" fill-opacity="0" d="M0 0h82v82H0z"/></clipPath></defs><g clip-path="url(#aga)"><path fill="none" d="M0 0h82v82H0z"/><path d="M45 13h2.05c2.77 0 4.16 0 5.03.84l.07.07c.85.87.85 2.25.85 5.02v30.18c0 5.55 0 8.31-1.7 10.06-.04.05-.09.09-.13.13C49.42 61 46.66 61 41.12 61H24.87c-5.54 0-8.3 0-10.05-1.7-.04-.04-.09-.08-.13-.13C13 57.42 13 54.66 13 49.11V18.93c0-2.77 0-4.15.84-5.02l.07-.07c.87-.84 2.25-.84 5.03-.84H23m4 4c-2.22 0-4-1.8-4-4 0-2.21 1.78-4 4-4a3.999 3.999 0 1 1 0 8Zm14 0c-2.22 0-4-1.8-4-4 0-2.21 1.78-4 4-4a3.999 3.999 0 1 1 0 8Zm-8 44c0 20 34 22 34 0V45M67 45c-3.32 0-6-2.69-6-6 0-3.32 2.68-6 6-6 3.31 0 6 2.68 6 6 0 3.31-2.69 6-6 6Z" stroke="#3DA6D3" stroke-width="7"/><path d="M67.03 38.96V39H67v-.04h.03Z" stroke="#FFF" stroke-width="7" stroke-linejoin="round"/></g></svg><svg fill="none" viewBox="0 0 82 82" id="i-card-4" xmlns="http://www.w3.org/2000/svg"><defs><clipPath id="aha"><path fill="#fff" fill-opacity="0" d="M0 0h82v82H0z"/></clipPath></defs><g clip-path="url(#aha)"><path fill="none" d="M0 0h82v82H0z"/><path d="M63.01 7c.93 0 1.39 0 1.68.28.01 0 .02.01.02.02.29.29.29.75.29 1.68v64.03c0 .93 0 1.39-.29 1.68 0 .01-.01.02-.02.02-.29.29-.75.29-1.68.29H18.98c-.93 0-1.39 0-1.68-.29-.01 0-.02-.01-.02-.02-.28-.29-.28-.75-.28-1.68V8.98c0-.93 0-1.39.28-1.68 0-.01.01-.02.02-.02.29-.28.75-.28 1.68-.28h44.03Z" stroke="#3DA6D3" stroke-width="7"/><circle cx="29" cy="21" r="4" stroke="#3DA6D3" stroke-width="7"/><circle cx="53" cy="21" r="4" stroke="#3DA6D3" stroke-width="7"/><circle cx="29" cy="41" r="4" stroke="#3DA6D3" stroke-width="7"/><circle cx="53" cy="41" r="4" stroke="#3DA6D3" stroke-width="7"/><circle cx="29" cy="61" r="4" stroke="#3DA6D3" stroke-width="7"/><circle cx="53" cy="61" r="4" stroke="#3DA6D3" stroke-width="7"/><path d="M41 17v48" stroke="#3DA6D3" stroke-width="7" stroke-linecap="round"/></g></svg><svg fill="none" viewBox="0 0 82 82" id="i-card-5" xmlns="http://www.w3.org/2000/svg"><defs><clipPath id="aia"><path fill="#fff" fill-opacity="0" d="M0 0h82v82H0z"/></clipPath></defs><g clip-path="url(#aia)"><path fill="none" d="M0 0h82v82H0z"/><path d="M17 25h48c6 0 6 8 0 8h-8c-2.22 0-4 1.79-4 4v38c0 6-8 6-8 0s0-18-4-18-4 12-4 18-8 6-8 0V36.98c0-2.21-1.79-3.98-4-3.98h-8c-6 0-6-8 0-8ZM41 19c-4.42 0-8-3.59-8-8 0-4.42 3.58-8 8-8 4.41 0 8 3.58 8 8 0 4.41-3.59 8-8 8Z" stroke="#3DA6D3" stroke-width="7"/></g></svg><svg fill="none" viewBox="0 0 82 82" id="i-card-6" xmlns="http://www.w3.org/2000/svg"><defs><clipPath id="aja"><path fill="#fff" fill-opacity="0" d="M0 0h82v82H0z"/></clipPath></defs><g clip-path="url(#aja)"><path fill="none" d="M0 0h82v82H0z"/><path d="M59 67a2 2 0 0 1 2 2v5.5c0 .27-.23.5-.5.5h-39c-.28 0-.5-.23-.5-.5V69c0-1.11.89-2 2-2h36Z" stroke="#3DA6D3" stroke-width="7"/><path d="M20.21 52.99s2.91 4.23 4.84 5.94a24 24 0 0 0 39.45-13.1c.85-4.13.6-8.4-.73-12.4-.7-2.1-1.68-4.08-2.9-5.9l-.3-.31M55 30.99l.39.75c.77 1.19 1.39 2.49 1.85 3.86.95 2.85 1.13 5.9.52 8.84-.6 2.95-1.98 5.68-3.97 7.92-2 2.25-4.55 3.93-7.4 4.88-2.85.95-5.9 1.13-8.84.52-3.31-.68-8.76-4.77-8.76-4.77m26.21-34c1.76 0 3.35.77 4.45 1.99a5.965 5.965 0 0 1 1.12 6.24A6 6 0 0 1 55 30.99c-2.12 0-3.98-1.09-5.05-2.74-.6-.94-.95-2.06-.95-3.26 0-3.31 2.68-6 6-6Zm-5.05 9.26-11.61 8.9a2.55 2.55 0 0 1-3.57-.48l-4.99-6.51c-.41-.53-.61-.8-.75-1.06-.61-1.19-.41-2.63.48-3.61.2-.22.47-.42 1-.83l19.97-15.3c1.89-1.45 2.84-2.18 3.87-2.21.35-.01.69.04 1.02.14.99.3 1.71 1.24 3.16 3.13L61 13.63c.95 1.25 1.43 1.88 1.59 2.53.19.78.08 1.6-.31 2.3-.32.59-.95 1.07-2.2 2.03l-.63.49m5.37-11.84c1.06 1.39.92 3.4-.47 4.52-.94.75-2.27.73-3.04-.27l-1.23-1.61-1.23-1.61c-.76-.99-.44-2.3.52-3 1.45-1.06 3.42-.67 4.49.72l.96 1.25Zm-5.97 1.03-.32.25m2.78 2.97-.31.24M34.77 36.67l-4.1 3.14c-.96.74-1.44 1.1-1.93 1.25-.76.23-1.59.12-2.27-.3-.44-.27-.81-.75-1.54-1.71-.74-.96-1.11-1.44-1.25-1.94-.23-.76-.12-1.59.3-2.27.27-.43.75-.8 1.71-1.54l4.09-3.14" stroke="#3DA6D3" stroke-width="7"/><path d="M19 53h16" stroke="#3DA6D3" stroke-width="7" stroke-linecap="round"/></g></svg><svg fill="none" viewBox="0 0 16 16" id="i-clock" xmlns="http://www.w3.org/2000/svg"><defs><clipPath id="aka"><path fill="#fff" fill-opacity="0" d="M0 0h16v16H0z"/></clipPath></defs><path fill="none" d="M0 0h16v16H0z"/><g clip-path="url(#aka)" stroke="#111010" stroke-width="1.5" stroke-linejoin="round"><path d="M8 14.66A6.66 6.66 0 0 1 1.33 8c0-3.69 2.98-6.67 6.67-6.67 3.67 0 6.66 2.98 6.66 6.67 0 3.68-2.99 6.66-6.66 6.66Z"/><path d="M8 4v4l2.66 1.33" stroke-linecap="round"/></g></svg><svg fill="none" viewBox="0 0 24 24" id="i-close" xmlns="http://www.w3.org/2000/svg"><defs><clipPath id="ala"><path fill="#fff" fill-opacity="0" d="M0 0h24v24H0z"/></clipPath></defs><path fill="none" d="M0 0h24v24H0z"/><g clip-path="url(#ala)" stroke="#3DA6D3" stroke-width="2" stroke-linejoin="round" stroke-linecap="round"><path d="m7.05 16.94 9.89-9.9M7.05 7.05l9.89 9.9"/></g></svg><svg fill="none" viewBox="0 0 40 40" id="i-direction-1" xmlns="http://www.w3.org/2000/svg"><defs><clipPath id="ama"><path fill="#fff" fill-opacity="0" d="M0 0h40v40H0z"/></clipPath></defs><path fill="none" d="M0 0h40v40H0z"/><g clip-path="url(#ama)"><path d="M18.33 3.33c6.78 0 12.38 5.06 13.22 11.61l3.75 5.89c.25.39.2.97-.37 1.22l-3.27 1.39v4.89c0 1.84-1.49 3.33-3.33 3.33H25v5H10V30.5c0-1.96-.73-3.82-2.08-5.5A13.313 13.313 0 0 1 5 16.66C5 9.3 10.97 3.33 18.33 3.33Zm0 3.33c-5.52 0-10 4.48-10 10 0 2.31.78 4.49 2.19 6.25 1.82 2.27 2.81 4.86 2.81 7.59v2.83h8.33v-5h6.67v-7.08l2.58-1.11-2.57-4.04-.09-.74c-.65-4.95-4.88-8.7-9.92-8.7Zm0 5c.92 0 1.67.75 1.67 1.67V15h1.66c.92 0 1.67.74 1.67 1.66 0 .92-.75 1.67-1.67 1.67H20V20a1.67 1.67 0 0 1-3.34 0v-1.67H15c-.92 0-1.67-.75-1.67-1.67 0-.92.75-1.66 1.67-1.66l1.66-.01v-1.66c0-.92.75-1.67 1.67-1.67Z" fill="#3DA6D3" fill-rule="evenodd"/></g></svg><svg fill="none" viewBox="0 0 40 40" id="i-direction-2" xmlns="http://www.w3.org/2000/svg"><defs><clipPath id="ana"><path fill="#fff" fill-opacity="0" d="M0 0h40v40H0z"/></clipPath></defs><path fill="none" d="M0 0h40v40H0z"/><g clip-path="url(#ana)"><path d="M28.33 3.33v3.33h5c.92 0 1.67.75 1.67 1.67V35c0 .91-.75 1.66-1.67 1.66H6.66C5.74 36.66 5 35.91 5 35V8.33c0-.92.74-1.67 1.66-1.67h5V3.33h16.67ZM11.66 10H8.33v23.33h23.33V10h-3.33v3.33H11.66V10Zm10 8.33v3.33H25V25h-3.34v3.33h-3.33V25H15v-3.34h3.33v-3.33h3.33ZM25 6.66H15V10h10V6.66Z" fill="#3DA6D3" fill-rule="evenodd"/></g></svg><svg fill="none" viewBox="0 0 40 40" id="i-direction-3" xmlns="http://www.w3.org/2000/svg"><defs><clipPath id="aoa"><path fill="#fff" fill-opacity="0" d="M0 0h40v40H0z"/></clipPath></defs><path fill="none" d="M0 0h40v40H0z"/><g clip-path="url(#aoa)"><path d="M30.6 18.3a6.645 6.645 0 0 1 0 9.42l-9.43 9.43c-.65.65-1.7.65-2.35 0l-9.43-9.43c-2.6-2.6-2.6-6.82 0-9.43 2.6-2.6 6.82-2.6 9.43 0l1.17 1.18 1.18-1.18c2.61-2.6 6.83-2.6 9.43.01Zm-18.85 2.35c-1.3 1.3-1.3 3.41 0 4.71L20 33.61l8.25-8.25c1.3-1.3 1.3-3.41 0-4.71a3.344 3.344 0 0 0-4.72 0l-3.54 3.53-3.53-3.53c-1.3-1.3-3.41-1.3-4.71 0ZM20 1.66c3.68 0 6.66 2.99 6.66 6.67 0 3.68-2.98 6.67-6.66 6.67-3.69 0-6.67-2.99-6.67-6.67 0-3.68 2.98-6.67 6.67-6.67ZM20 5a3.331 3.331 0 1 0 0 6.66c1.84 0 3.33-1.49 3.33-3.33S21.84 5 20 5Z" fill="#3DA6D3" fill-rule="evenodd"/></g></svg><svg fill="none" viewBox="0 0 40 40" id="i-direction-4" xmlns="http://www.w3.org/2000/svg"><defs><clipPath id="apa"><path fill="#fff" fill-opacity="0" d="M0 0h40v40H0z"/></clipPath></defs><path fill="none" d="M0 0h40v40H0z"/><g clip-path="url(#apa)"><path d="M33.33 3.33c.92 0 1.67.75 1.67 1.67v30c0 .91-.75 1.66-1.67 1.66H10c-.92 0-1.67-.75-1.67-1.66v-3.34H5v-3.33h3.33V25H5v-3.34h3.33v-3.33H5V15h3.33v-3.34H5V8.33h3.33V5c0-.92.75-1.67 1.67-1.67h23.33Zm-1.67 3.33h-20v26.67h20V6.66Zm-8.33 6.67v5h5v3.33h-5v5H20l-.01-5H15v-3.33h5v-5h3.33Z" fill="#3DA6D3" fill-rule="evenodd"/></g></svg><svg fill="none" viewBox="0 0 40 40" id="i-direction-5" xmlns="http://www.w3.org/2000/svg"><defs><clipPath id="aqa"><path fill="#fff" fill-opacity="0" d="M0 0h40v40H0z"/></clipPath></defs><path fill="none" d="M0 0h40v40H0z"/><g clip-path="url(#aqa)"><path d="M20 25c6.79 0 12.41 5.08 13.23 11.66H6.76C7.58 30.08 13.19 25 20 25Zm-3.03 3.79c-2.39.76-4.4 2.39-5.64 4.54H20l-3.03-4.54Zm6.05 0L20 33.33h8.66a10.025 10.025 0 0 0-5.64-4.54ZM30 3.33v10c0 5.52-4.48 10-10 10-5.53 0-10-4.48-10-10v-10h20Zm-16.67 10c0 3.68 2.98 6.67 6.67 6.67 3.68 0 6.66-2.99 6.66-6.67H13.33Zm13.33-6.67H13.33V10h13.33V6.66Z" fill="#3DA6D3" fill-rule="evenodd"/></g></svg><svg fill="none" viewBox="0 0 80 80" id="i-double-check" xmlns="http://www.w3.org/2000/svg"><defs><clipPath id="ara"><path fill="#fff" fill-opacity="0" d="M0 0h80v80H0z"/></clipPath></defs><path fill="none" d="M0 0h80v80H0z"/><g clip-path="url(#ara)" stroke="#3DA6D3" stroke-width="6" stroke-linejoin="round" stroke-linecap="round"><path d="M60 20 23.33 56.66 6.66 40M73.33 33.33l-25 25-5-5"/></g></svg><svg fill="none" viewBox="0 0 20 20" id="i-email" xmlns="http://www.w3.org/2000/svg"><defs><clipPath id="asa"><path fill="#fff" fill-opacity="0" d="M0 0h20v20H0z"/></clipPath></defs><path fill="none" d="M0 0h20v20H0z"/><g clip-path="url(#asa)" stroke="#111010" stroke-width="1.5" stroke-linejoin="round"><path d="M16.66 3.33c.92 0 1.67.75 1.67 1.67v10c0 .92-.75 1.66-1.67 1.66H3.33c-.92 0-1.67-.74-1.67-1.66V5c0-.92.75-1.67 1.67-1.67h13.33Z"/><path d="m18.33 5.83-7.48 4.75a1.593 1.593 0 0 1-1.71 0L1.66 5.83" stroke-linecap="round"/></g></svg><svg fill="none" viewBox="0 0 24 24" id="i-facebook" xmlns="http://www.w3.org/2000/svg"><defs><clipPath id="ata"><path fill="#fff" fill-opacity="0" d="M0 0h24v24H0z"/></clipPath></defs><path fill="none" d="M0 0h24v24H0z"/><g clip-path="url(#ata)"><path d="M15 2c-1.33 0-2.6.52-3.54 1.46S10 5.67 10 7v3H7v4h3v8h4v-8h3l1-4h-4V7a.99.99 0 0 1 1-1h3V2h-3Z" stroke="#3DA6D3" stroke-width="2" stroke-linejoin="round"/></g></svg><svg viewBox="0 0 20 34.892" id="i-google-maps-pin" xmlns="http://www.w3.org/2000/svg"><g transform="matrix(1.18559 0 0 1.18559 -965.773 -331.784)"><path d="M817.112 282.971c-1.258 1.343-2.046 3.299-2.015 5.139.064 3.845 1.797 5.3 4.568 10.592.999 2.328 2.04 4.792 3.031 8.873.138.602.272 1.16.335 1.21.062.048.196-.513.334-1.115.99-4.081 2.033-6.543 3.031-8.871 2.771-5.292 4.504-6.748 4.568-10.592.031-1.84-.759-3.798-2.017-5.14-1.437-1.535-3.605-2.67-5.916-2.717-2.312-.048-4.481 1.087-5.919 2.621z" style="display:inline;opacity:1;fill:#ff4646;fill-opacity:1;stroke:#d73534;stroke-width:1;stroke-miterlimit:4;stroke-dasharray:none;stroke-opacity:1"/><circle r="3.035" cy="288.253" cx="823.031" style="display:inline;opacity:1;fill:#590000;fill-opacity:1;stroke-width:0"/></g></svg><svg fill="none" viewBox="0 0 40 40" id="i-heart-add" xmlns="http://www.w3.org/2000/svg"><defs><clipPath id="ava"><path fill="#fff" fill-opacity="0" d="M0 0h40v40H0z"/></clipPath></defs><path fill="none" d="M0 0h40v40H0z"/><g clip-path="url(#ava)"><path d="M31.66 23.33v5h5v3.33h-5v5h-3.33v-5h-5v-3.33h5v-5h3.33Zm2.07-15.41c3.77 3.78 3.9 9.8.4 13.73l-2.37-2.36c2.22-2.54 2.1-6.53-.39-9.01-2.5-2.5-6.53-2.61-9.15-.26l-2.22 2-2.23-1.99c-2.62-2.36-6.65-2.25-9.15.25a6.663 6.663 0 0 0-.32 9.09l14.05 14.07L20 35.8 5.86 21.65c-3.5-3.93-3.37-9.96.39-13.73 3.78-3.77 9.82-3.9 13.75-.38 3.91-3.51 9.96-3.39 13.73.38Z" fill="#FFF" fill-rule="evenodd"/></g></svg><svg fill="none" viewBox="0 0 24 24" id="i-home" xmlns="http://www.w3.org/2000/svg"><defs><clipPath id="awa"><path fill="#fff" fill-opacity="0" d="M0 0h24v24H0z"/></clipPath></defs><path fill="none" d="M0 0h24v24H0z"/><g clip-path="url(#awa)" stroke="#3DA6D3" stroke-width="2" stroke-linejoin="round"><path d="m12 2 9 7v11c0 .53-.22 1.03-.59 1.41-.38.37-.88.59-1.41.59H5c-.54 0-1.04-.22-1.42-.59C3.21 21.03 3 20.53 3 20V9l9-7Z"/><path d="M9 22V12h6v10" stroke-linecap="round"/></g></svg><svg fill="none" viewBox="0 0 24 24" id="i-instagram" xmlns="http://www.w3.org/2000/svg"><defs><clipPath id="axa"><path fill="#fff" fill-opacity="0" d="M0 0h24v24H0z"/></clipPath></defs><path fill="none" d="M0 0h24v24H0z"/><g clip-path="url(#axa)" stroke="#3DA6D3" stroke-width="2" stroke-linejoin="round"><path d="M17 2c2.76 0 5 2.23 5 5v10c0 2.76-2.24 5-5 5H7c-2.77 0-5-2.24-5-5V7c0-2.77 2.23-5 5-5h10Z"/><path d="M15.59 13.79a4 4 0 0 1-1.76 1.74c-.75.37-1.6.51-2.43.37a3.92 3.92 0 0 1-2.19-1.12c-.59-.59-.99-1.36-1.12-2.19a4.04 4.04 0 0 1 .37-2.44c.38-.75.99-1.36 1.73-1.75.75-.39 1.6-.53 2.43-.4.86.12 1.64.52 2.25 1.12.6.61 1 1.4 1.13 2.25.12.83-.02 1.68-.41 2.42Z"/><path d="M17.5 6.5h.01" stroke-linecap="round"/></g></svg><svg fill="none" viewBox="0 0 16 16" id="i-map-pin" xmlns="http://www.w3.org/2000/svg"><defs><clipPath id="aya"><path fill="#fff" fill-opacity="0" d="M0 0h16v16H0z"/></clipPath></defs><path fill="none" d="M0 0h16v16H0z"/><g clip-path="url(#aya)" stroke="#111010" stroke-width="1.5" stroke-linejoin="round"><path d="M8 14.66s-5.34-4-5.34-8A5.346 5.346 0 0 1 8 1.33c1.41 0 2.77.56 3.77 1.56s1.56 2.36 1.56 3.77c0 4-5.33 8-5.33 8Z"/><path d="M8 8.66c-1.11 0-2-.89-2-2a2 2 0 1 1 2 2Z"/></g></svg><svg fill="none" viewBox="0 0 24 24" id="i-menu" xmlns="http://www.w3.org/2000/svg"><defs><clipPath id="aza"><path fill="#fff" fill-opacity="0" d="M0 0h24v24H0z"/></clipPath></defs><path fill="none" d="M0 0h24v24H0z"/><g clip-path="url(#aza)" stroke="#3DA6D3" stroke-width="2" stroke-linejoin="round" stroke-linecap="round"><path d="M4 12h16M4 6h16M4 18h16"/></g></svg><svg fill="none" viewBox="0 0 16 16" id="i-phone" xmlns="http://www.w3.org/2000/svg"><defs><clipPath id="baa"><path fill="#fff" fill-opacity="0" d="M0 0h16v16H0z"/></clipPath></defs><path fill="none" d="M0 0h16v16H0z"/><g clip-path="url(#baa)"><path d="M14.66 13.28c0 .18-.04.37-.11.54-.07.17-.18.32-.32.44-.14.13-.3.23-.48.28-.17.06-.36.09-.54.07-2.05-.22-4.02-.93-5.76-2.05a13.048 13.048 0 0 1-4-4 13.163 13.163 0 0 1-2.04-5.78c-.02-.18 0-.37.06-.54.06-.18.15-.34.28-.48.12-.13.28-.24.44-.32.18-.07.36-.11.54-.11h2c.33 0 .64.11.89.32.24.21.4.51.45.83.08.64.24 1.27.46 1.87.09.24.11.5.06.75s-.18.48-.36.65l-.84.85c.94 1.67 2.33 3.05 4 4l.84-.85c.18-.17.41-.3.66-.35.25-.05.51-.03.75.06.61.22 1.23.38 1.87.46.33.05.62.21.83.46.22.25.33.57.32.9v2Z" stroke="#111010" stroke-width="1.5" stroke-linejoin="round"/></g></svg><svg fill="none" viewBox="0 0 40 40" id="i-photo" xmlns="http://www.w3.org/2000/svg"><defs><clipPath id="bba"><path fill="#fff" fill-opacity="0" d="M0 0h40v40H0z"/></clipPath></defs><path fill="none" d="M0 0h40v40H0z"/><g clip-path="url(#bba)" stroke="#FFF" stroke-width="3" stroke-linejoin="round"><path d="m15.83 6.66-4.17 5h-5c-.88 0-1.73.35-2.36.98-.62.62-.97 1.47-.97 2.36v15a3.33 3.33 0 0 0 3.33 3.33h26.67c.88 0 1.73-.35 2.35-.98.63-.62.98-1.47.98-2.35V15c0-.89-.35-1.74-.98-2.36-.62-.63-1.47-.98-2.35-.98h-5l-4.17-5h-8.33Z"/><path d="M20 26.66c-2.77 0-5-2.24-5-5s2.23-5 5-5c2.76 0 5 2.24 5 5s-2.24 5-5 5Z"/></g></svg><svg fill="none" viewBox="0 0 24 24" id="i-search" xmlns="http://www.w3.org/2000/svg"><defs><clipPath id="bca"><path fill="#fff" fill-opacity="0" d="M0 0h24v24H0z"/></clipPath></defs><path fill="none" d="M0 0h24v24H0z"/><g clip-path="url(#bca)" stroke="#FFF" stroke-width="2" stroke-linejoin="round"><path d="M11 19c-4.42 0-8-3.59-8-8 0-4.42 3.58-8 8-8 4.41 0 8 3.58 8 8 0 4.41-3.59 8-8 8Z"/><path d="m21 21-4.3-4.31" stroke-linecap="round"/></g></svg><svg fill="none" viewBox="0 0 40 40" id="i-syringe" xmlns="http://www.w3.org/2000/svg"><defs><clipPath id="bda"><path fill="#fff" fill-opacity="0" d="M0 0h40v40H0z"/></clipPath></defs><path fill="none" d="M0 0h40v40H0z"/><g clip-path="url(#bda)"><path d="m36.12 13.29-2.35 2.36-3.54-3.53-3.53 3.53 5.89 5.89-2.36 2.36-1.18-1.18-10.6 10.61H9.02l-3.54 3.53-2.35-2.35 3.53-3.54v-9.43l10.61-10.6-1.18-1.18 2.36-2.36 5.89 5.89 3.53-3.53-3.53-3.54 2.36-2.35 9.42 9.42Zm-9.42 7.08-7.08-7.08-2.35 2.36 3.53 3.54-2.35 2.35-3.54-3.53-2.36 2.36 3.54 3.53-2.36 2.36-3.53-3.54-.2.2V30h7.07l9.63-9.63Z" fill="#FFF" fill-rule="evenodd"/></g></svg><svg fill="none" viewBox="0 0 40 40" id="i-test-tube" xmlns="http://www.w3.org/2000/svg"><defs><clipPath id="bea"><path fill="#fff" fill-opacity="0" d="M0 0h40v40H0z"/></clipPath></defs><path fill="none" d="M0 0h40v40H0z"/><g clip-path="url(#bea)"><path d="M28.33 3.33v3.33h-1.67V30c0 3.68-2.98 6.66-6.66 6.66A6.66 6.66 0 0 1 13.33 30V6.66h-1.67V3.33h16.67Zm-5 13.33h-6.67V30c0 1.84 1.49 3.33 3.34 3.33 1.84 0 3.33-1.49 3.33-3.33V16.66ZM21.66 25c.92 0 1.67.74 1.67 1.66 0 .92-.75 1.67-1.67 1.67-.92 0-1.66-.75-1.66-1.67 0-.92.74-1.66 1.66-1.66Zm-3.33-5c.92 0 1.67.74 1.67 1.66 0 .92-.75 1.67-1.67 1.67-.92 0-1.67-.75-1.67-1.67 0-.92.75-1.66 1.67-1.66Zm5-13.34h-6.67v6.67h6.67V6.66Z" fill="#FFF" fill-rule="evenodd"/></g></svg><svg fill="none" viewBox="0 0 40 40" id="i-time" xmlns="http://www.w3.org/2000/svg"><defs><clipPath id="bfa"><path fill="#fff" fill-opacity="0" d="M0 0h40v40H0z"/></clipPath></defs><path fill="none" d="M0 0h40v40H0z"/><g clip-path="url(#bfa)"><path d="M20 36.66C10.79 36.66 3.33 29.2 3.33 20c0-9.21 7.46-16.67 16.67-16.67 9.2 0 16.66 7.46 16.66 16.67 0 9.2-7.46 16.66-16.66 16.66Zm0-3.33c3.53 0 6.92-1.41 9.42-3.91s3.91-5.89 3.91-9.42c0-3.54-1.41-6.93-3.91-9.43S23.53 6.66 20 6.66c-3.54 0-6.93 1.41-9.43 3.91S6.66 16.46 6.66 20c0 3.53 1.41 6.92 3.91 9.42s5.89 3.91 9.43 3.91ZM21.66 20h6.67v3.33h-10V11.66h3.33V20Z" fill="#FFF" fill-rule="evenodd"/></g></svg><svg fill="none" viewBox="0 0 24 24" id="i-youtube" xmlns="http://www.w3.org/2000/svg"><defs><clipPath id="bga"><path fill="#fff" fill-opacity="0" d="M0 0h24v24H0z"/></clipPath></defs><path fill="none" d="M0 0h24v24H0z"/><g clip-path="url(#bga)" stroke="#3DA6D3" stroke-width="2" stroke-linejoin="round"><path d="M2.5 7c.09-.34.26-.64.51-.89s.55-.42.89-.52c5.36-.88 10.83-.88 16.2 0 .33.1.64.27.88.52.25.25.43.55.52.89.69 3.29.69 6.7 0 10-.09.33-.27.63-.52.88-.24.25-.55.42-.88.52-5.37.88-10.84.88-16.2 0-.34-.1-.64-.27-.89-.52s-.42-.55-.51-.88c-.7-3.3-.7-6.71 0-10Z"/><path d="m15 12-5-3v6l5-3Z"/></g></svg></svg>